<?xml version="1.0" encoding="UTF-8"?>
<!DOCTYPE svg PUBLIC "-//W3C//DTD SVG 1.1//EN" "http://www.w3.org/Graphics/SVG/1.1/DTD/svg11.dtd">
<!-- Creator: CorelDRAW 2021 (64-Bit) -->
<svg xmlns="http://www.w3.org/2000/svg" xml:space="preserve" width="94.456mm" height="27.9068mm" version="1.1" style="shape-rendering:geometricPrecision; text-rendering:geometricPrecision; image-rendering:optimizeQuality; fill-rule:evenodd; clip-rule:evenodd"
viewBox="0 0 9958.54 2942.23"
 xmlns:xlink="http://www.w3.org/1999/xlink"
 xmlns:xodm="http://www.corel.com/coreldraw/odm/2003">
 <defs>
  <style type="text/css">
   <![CDATA[
    .fil1 {fill:none}
    .fil2 {fill:black;fill-rule:nonzero}
    .fil0 {fill:#FFD116;fill-rule:nonzero}
   ]]>
  </style>
    <clipPath id="id0">
     <path d="M-0 0l9958.54 0 0 2000.6 -9958.54 0 0 -2000.6zm0 0z"/>
    </clipPath>
 </defs>
 <g id="Слой_x0020_1">
  <metadata id="CorelCorpID_0Corel-Layer"/>
  <g id="_2078369786672">
   <g>
   </g>
   <g style="clip-path:url(#id0)">
    <g id="_2078369783888">
     <path class="fil0" d="M519.76 409.28c4.25,4.58 15.15,3.7 24.52,-0.77 -0.55,-6.76 -1.2,-13.4 -1.31,-20.16 -7.41,2.51 -15.04,4.36 -22.67,6.65 -1.86,3.6 -2.72,6.32 -2.61,8.93 1.31,0.65 1.31,0.65 2.51,1.53 0.43,1.41 -0.33,2.61 -0.44,3.82zm743.15 -123.58c-39.56,-21.57 -1.74,-51.76 -6.21,-77.25 -8.5,1.41 -17.22,3.15 -25.39,5.01 -4.36,12.21 -2.18,27.68 -20.6,16.67 4.25,-6.42 4.36,-10.79 2.61,-13.4 -10.79,2.29 -22.12,4.25 -33.01,6.43 51.43,43.91 3.7,35.96 -24.08,49.9 34.97,17.01 71.16,7.96 106.67,12.64zm8224.46 250.41c24.41,-17.54 131.08,11.22 91.97,-48.6 -69.74,13.95 -136.1,-3.7 -206.05,11.56 127.81,63.85 264.78,141.76 431.61,86.74 -92.41,-69.3 -258.8,4.03 -317.52,-49.69zm443.27 269.69c-20.49,36.5 -82.27,-17.99 -70.62,48.38 36.07,-32.04 59.72,43.26 98.51,-12.1l-27.9 -36.28zm-368.42 -171.95c-69.73,-80.2 -160.18,16.77 -231.55,-49.58 -28.22,-60.91 -35.53,-122.15 -75.63,-183.28 -124.55,-17.77 -301.51,50.56 -382.14,-49.9 -19.73,16.01 -41.73,49.14 -58.08,36.5 -48.27,-61.24 -62.32,-145.58 -131.08,-171.29 -44.34,70.5 -73.88,14.28 -116.37,72.89 -178.16,-8.82 -341.61,-76.38 -505.81,-99.38 -66.91,-9.26 -136.65,-14.49 -206.82,-19.06 -8.17,-12.21 -16.89,-22.56 -28.33,-15.58 1.53,4.58 4.03,9.58 5.99,14.16 -9.26,-0.21 -18.52,-0.65 -27.56,-1.19 -8.94,-14.39 -11.12,-29.2 -24.42,-25.18 6.76,15.58 -7.84,18.42 -22.77,20.71 0.77,0.88 0.55,1.53 0.88,2.07 -200.17,-9.15 -399.89,-14.6 -559.96,-63.85 -107.66,59.49 -205.73,38.57 -298.78,-25.28 -327.55,64.07 -636.8,-26.16 -957.8,-15.69 -169.33,-151.13 -382.69,75.84 -554.64,-50.56 -31.82,25.18 -60.47,26.48 -95.01,73.22 -436.3,-47.39 -890.35,55.69 -1326.86,7.74 238.96,-14.6 474.31,2.61 719.82,-70.61 -298.34,-36.83 -729.74,73.88 -913.67,70.07 18.2,-20.27 43.48,-40.65 17.87,-61.02 -18.2,100.69 -143.83,92.73 -69.4,133.7 -29.1,6.65 -58.84,11.11 -88.7,15.36 -9.37,-5.01 -18.85,-7.19 -26.48,-4.46 2.08,2.61 2.29,5.66 3.82,8.5 -13.29,1.53 -26.69,2.61 -39.66,4.14 3.37,-12.43 9.15,-24.08 20.81,-35.2l-30.62 -44.02c-53.61,35.52 44.67,28 -3.82,75.84 -7.84,-11.33 -18.52,-4.47 -26.8,-11.77 -9.27,-14.82 4.25,-28.88 -11.12,-43.58 -24.51,29.74 -38.89,2.39 -64.93,40.97 27.56,-3.49 56.33,4.68 73.98,21.79 -81.51,7.08 -163.01,9.81 -242.77,10.25 -25.61,-22.46 36.29,-44.9 -5.88,-67.45 -39.11,-13.95 -34.98,58.51 -58.41,36.39 -132.94,-90.44 -286.57,-4.35 -428.02,-25.82 -90.99,-24.74 -160.61,12.09 -258.46,-0.55 2.84,0.11 22.77,-26.04 24.41,-24.3 -62.33,-61.56 -116.81,34.43 -230.68,35.74 -76.92,1.09 -117.35,-25.94 -168.46,-40.75 5.66,-15.15 13.29,-30.84 19.83,-46.32 -216.84,26.37 -434,54.7 -650.96,90.66 2.29,3.82 3.27,7.41 6.65,11.23 -46.97,42.16 -80.52,29.52 -87.05,58.29 -48.06,-31.17 -11.45,-41.52 23.64,-60.37 -20.16,3.6 -40.53,6.65 -60.91,10.35 -4.25,7.19 -9.37,13.62 -15.8,19.4 -5.56,-4.8 -7.62,-9.59 -7.95,-14.71 -11.66,2.07 -23.65,4.68 -34.87,7.07 4.58,-0.33 8.71,-0.54 11.11,-0.86 30.62,47.39 -56.55,85.21 -87.39,58.72 15.14,60.04 -39.44,52.09 -56.77,115.94 2.08,-94.03 -69.95,-57.53 -127.59,-34.43 -27.14,-24.84 -15.8,-53.94 -29.32,-80.08 -1.63,0.33 -3.27,0.98 -5.01,0.98 4.14,6.76 6.43,13.73 3.6,21.24 -37.6,14.93 -100.46,114.74 -44.79,78.46 11.88,37.26 -64.95,57.53 -86.62,34.32 15.69,-31.27 21.9,-80.53 7.73,-105.15 -10.34,2.61 -20.7,5.11 -31.27,7.62 -1.09,13.19 2.51,25.83 14.17,37.15 -14.28,5.35 -28.55,10.8 -43.58,29.53 -12.31,-36.93 -23.54,-36.07 -43.37,-49.04 -16.89,4.14 -34.43,9.7 -51.53,14.5 -28.33,28.22 -71.27,21.9 -110.28,94.03 -30.07,-9.58 -34.76,-26.04 -48.04,-47.73 -8.72,2.51 -17.87,4.91 -26.59,8.07 9.58,55.9 12.53,103.08 -35.74,149.94 3.05,-38.47 -9.81,-75.3 -14.82,-112.78 -25.28,25.49 -55.9,47.39 -89.78,64.83 -0.43,3.92 -1.42,6.65 -1.31,10.79 -21.47,15.37 -28.22,13.95 -33.23,5.45 -7.63,3.27 -15.26,5.66 -23.22,8.17 4.04,5.45 8.5,10.57 12.75,15.58 -25.27,21.25 -34.43,11.33 -39.87,-6.54 -9.59,2.39 -19.07,4.58 -28.88,6.43 0.98,6.54 4.9,13.07 14.49,18.52 -7.62,13.83 -14.81,2.29 -23.43,-17.22 -39.11,6.97 -78.78,8.17 -115.93,2.18 -1.2,6.42 -1.53,12.75 0.21,18.2 -3.7,7.84 -7.41,9.69 -11.11,10.13 -4.25,13.62 -8.82,27.13 -13.19,40.53 0.22,0.22 0.77,0.65 1.2,1.1 -1.09,0 -0.98,0.43 -1.96,0.43 -0.43,1.42 -0.76,2.84 -1.31,4.14 29.86,-1.74 59.49,-5.67 89.68,-24.52 10.46,19.07 -18.85,42.61 -34,64.73 -20.04,-16.68 -42.06,-15.58 -65.05,-10.14 -1.52,5.89 -3.6,12.31 -5.11,18.09 3.05,11.56 5.99,23.32 4.79,34 -4.35,3.37 -8.5,3.37 -12.75,4.79 -0.55,2.84 -1.41,5.67 -1.74,8.39 144.05,-1.09 288.32,3.92 433.02,-33.66 21.69,14.16 11.23,31.82 -1.31,49.57 -178.05,-25.94 -359.04,68.43 -535.67,-13.51 21.47,-1.53 42.83,-2.18 63.85,-2.29 -1.19,-5.45 0.55,-11.23 3.49,-16.78 -22.77,-2.51 -47.07,6.54 -71.05,16.56 -40.85,34.33 57.86,4.14 15.7,48.59 -22.89,-18.08 -44.68,-47.94 -73.99,-12.2 47.73,53.39 99.81,70.06 148.85,109.94l-48.6 48.6c79.55,38.46 41.41,102.43 44.9,171.07 -15.04,18.2 -74.87,-12.97 -58.19,36.17 26.04,-7.52 49.68,4.8 71.04,37.05 -41.08,103.2 -14.05,354.46 132.73,342.15l-97.42 97.08c77.26,82.27 82.27,-132.27 143.5,-121.49 -34.43,29.3 12.43,120.51 41.09,109.72 -5.12,-20.27 -8.39,-40.54 -3.82,-61.02 23.97,14.5 3.27,86.31 46.85,61.23 -9.81,-16.34 -18.52,-32.9 5.78,-48.81 114.41,95.13 218.59,90.88 301.94,99.16 -1.2,7.63 -1.63,14.39 -3.27,22.01 -12.09,-7.3 -72.03,-38.03 -55.57,11.77 18.63,-14.49 32.04,13.29 46.42,32.04 -2.94,2.51 -4.58,4.25 -7.41,6.76l37.15 48.49c60.15,-43.7 -27.23,-14.38 5.57,-48.38 10.89,38.9 79.76,38.03 89.01,71.59 4.8,-8.39 7.96,-17.98 9.05,-28 24.85,8.07 48.38,13.62 71.27,17.22 9.15,17.98 25.6,27.24 48.92,11.11 -0.65,-1.63 -2.07,-3.48 -3.37,-5.23 10.24,0.98 19.94,1.75 30.07,2.61 11.44,10.46 22.01,13.4 27.57,1.86 6.1,0.22 12.21,0.76 18.42,1.2 1.63,8.05 3.15,16.12 10.68,24.29 77.25,-33.78 133.59,16.89 175.87,61.57 -4.36,-25.5 -7.63,-37.82 -10.13,-48.49 23.96,9.81 49.25,22.12 75.94,38.57 -94.36,69.74 -227.41,-17.54 -285.48,47.52 92.29,-22.34 164.86,124.55 262.28,61.67 -6,-34.21 -67.89,-4.35 -37.38,-48.81 35.19,-3.27 70.39,-4.14 105.26,-4.47 -4.9,9.27 -8.39,18.31 -11.11,27.35 -8.39,-35.62 -75.52,-5.99 -55.36,12.1 48.06,-17.66 138.17,-8.94 169.55,-37.6 82.91,2.39 165.5,5.99 249.85,-1.53 4.46,14.17 10.46,30.3 21.24,53.07 6.86,-27.9 8.72,-45.23 12.75,-57.43 32.04,-4.14 64.07,-10.46 97.09,-18.85 -20.38,25.06 -46.75,69.19 -61.68,99.16 -10.35,3.6 -20.37,8.5 -31.17,15.36 6.76,4.58 13.62,7.31 20.27,10.46 36.93,15.91 73.44,7.08 107.11,0 0.22,-0.11 0.88,0.22 0.88,0.22l10.68 -2.72c0,0 52.51,-4.69 73.66,17 16.67,-20.26 48.16,-40.32 39.44,-60.58 -36.62,17.54 -70.93,16.67 -105.16,13.83 4.25,-2.39 9.49,-4.03 17.54,-3.7 -6.54,-24.63 -62.54,-49.04 -34.32,-73.44 26.47,-41.74 35.41,66.36 61.78,24.51 -1.31,-5.88 -0.22,-12.09 1.41,-18.3 36.51,10.13 75.95,13.52 115.51,11.11 6.32,20.16 12.96,32.58 21.57,19.95 -8.82,-7.08 -12.42,-13.41 -12.54,-20.38 9.59,-0.44 19.5,-1.75 29.32,-3.27 3.7,18.52 11.65,29.64 38.68,11.44 -3.71,-5.56 -7.63,-11.23 -11.12,-16.78 7.96,-1.85 15.7,-3.37 23.76,-5.66 4.25,8.93 10.67,11.01 33.44,-1.74 0.33,-4.14 1.42,-6.76 2.3,-10.35 35.19,-13.84 67.22,-31.93 94.69,-54.71 1.86,37.92 11.22,76.28 5.12,113.98 51.43,-40.97 52.96,-88.15 48.27,-145.25 9.15,-1.86 18.2,-3.27 27.46,-5.12 10.89,23.54 14.28,40.54 43.47,53.28 44.46,-67.12 87.18,-56.23 117.58,-81.29 17.54,-2.72 35.19,-6.21 52.53,-8.5 18.2,15.58 29.53,15.91 38.79,54.16 16.34,-17.54 30.94,-21.03 45.77,-24.52 -10.68,-12.85 -12.86,-26.04 -11.11,-38.68 10.79,-1.41 21.57,-2.61 31.92,-4.13 12.09,26.37 1.31,74.53 -16.78,103.94 19.5,25.5 97.31,14.6 88.7,-24.29 -58.19,29.74 13.29,-62.55 51.54,-72.91 3.37,-6.86 1.53,-14.16 -1.86,-21.35 1.86,-0.44 3.71,-0.65 5.35,-0.65 11.01,27.45 -2.61,55.25 21.79,83.03 59.17,-16.13 133.92,-44.34 124,49.14 22.56,-61.56 76.06,-47.61 66.36,-109.62 28.01,30.73 117.9,2.61 91.97,-48.28 -2.61,0.33 -6.75,-0.21 -11.11,-0.33 11.88,-0.98 23.54,-2.07 35.09,-3.05 0.12,5.12 1.53,10.57 6.98,15.26 6.75,-4.9 12.31,-10.68 17,-17.32 20.59,-1.2 40.97,-1.96 61.46,-3.16 -36.72,14.6 -74.1,21.03 -28.88,57.64 9.27,-28.11 41.3,-11.66 91.86,-48.38 -3.27,-4.03 -3.92,-8.05 -6.1,-11.77 262.06,-13.29 522.49,-16.67 783.14,-17.32 0.43,2.61 0.65,4.14 1.74,7.41 24.3,6.86 43.48,3.37 57.32,-7.19 62.65,-0.33 125.63,-0.33 188.51,-0.33 -5.89,23.53 8.6,49.35 31.7,32.47 -3.6,-10.68 -4.25,-21.58 -1.09,-32.26 116.69,-0.11 233.17,-0.21 350.09,-1.31 -15.36,-66.36 -99.48,1.1 -80.96,-48.92 63.2,-14.06 126.83,-18.75 191.12,-18.52 10.9,21.9 -28,43.91 -13.4,65.81 36.72,-51.98 28.98,-14.71 101.34,-36.5 -7.85,-22.67 -17.33,-28.33 -27.9,-27.24 11.77,0.55 23.43,0.22 35.19,1.41 18.09,34.22 52.41,42.5 88.04,38.8 -14.71,-13.4 -24.41,-24.96 -32.25,-34.65 70.06,6.65 141.43,15.58 213.24,23.43 10.35,14.82 24.63,20.81 41.73,4.14 15.7,1.63 31.82,3.16 47.51,4.35 5.35,40.64 69.09,61.68 103.09,40.21 -14.39,-9.7 -33.35,-21.57 -48.93,-36.5 10.57,0.33 20.81,1.53 31.27,2.07 67.02,2.4 136.1,-3.05 205.07,-9.37 -0.21,6.54 0.77,12.64 1.86,18.2 -22.77,1.1 -45.44,0.77 -68.32,3.71 25.61,5.23 51.43,10.03 77.26,15.14 4.25,3.82 9.58,6.43 17.1,7.63 -0.33,-1.63 -0.43,-2.94 -0.88,-4.58 62.23,11.66 124.56,20.81 187.65,25.49 -3.71,11.56 -1.75,18.31 13.83,16.34 0.33,-6.97 1.42,-11.22 1.75,-15.36 5.33,0.55 10.24,0.22 15.36,0.65 4.9,6.54 11.77,9.92 20.81,0.88 62.88,2.51 126.3,1.63 190.91,-8.29 -67.56,-9.36 -134.58,-19.94 -201.92,-28.98 -4.79,-13.29 -5.66,-28.11 -3.48,-41.19 9.91,0.88 19.83,1.2 29.19,2.08 -8.28,13.95 -18.08,27.9 -3.92,41.73 13.08,-12.64 18.42,-25.71 24.3,-38.89 62.88,9.36 122.81,28.43 177.29,65.7 38.79,-34.33 68.32,10.79 109.18,-43.26 -4.59,13.83 -9.16,27.78 -11.88,41.73 22.77,-13.84 32.58,-27.9 36.94,-41.85 30.29,9.37 60.36,17.66 91.2,24.08 0.65,14.39 0.33,28.34 -1.63,42.5 14.28,-12.64 22.45,-25.28 26.37,-37.6 52.09,10.35 104.28,17.01 157.13,22.34 0.22,1.53 0.76,2.29 0.98,3.82 4.47,-0.65 8.39,-1.86 12.2,-2.29 102.87,9.48 206.82,12.75 310.33,15.8 11.66,17.65 23.54,32.79 50.67,24.08 -4.58,-7.63 -10.79,-15.04 -15.36,-22.89 6.54,0.55 13.29,0.55 19.61,0.65l17.22 22.45c6.21,-11.44 12.1,-17.1 17.87,-20.92 52.3,1.96 104.61,5.12 156.91,9.81 11.56,8.39 26.92,12.64 40.64,11.77 -0.54,-2.29 -1.09,-4.46 -1.31,-6.86 25.61,2.4 51.1,5.12 76.38,8.94 57,-28.22 112.02,-39.13 166.28,-40.32 -2.29,3.92 -3.38,7.95 -1.53,14.6 31.6,-24.42 53.06,41.4 83.36,24.73 -12.64,-11.78 -11.23,-23.87 -8.18,-35.53 139.03,15.58 272.95,71.27 418.85,26.26 203.01,78.24 421.27,23.65 617.62,160.83 24.96,-32.25 48.16,-45.11 69.95,-48.81 -213.79,-237 -609.34,-189.93 -840.02,-283.21 317.75,49.69 639.41,64.73 953.02,149.62 11.11,16.12 -2.94,32.47 15.91,48.59 114.41,5.02 222.94,58.96 341.82,25.61 -4.25,-129.67 -245.17,-126.07 -285.38,-232.75 87.06,22.88 173.37,52.3 267.73,13.19 -212.81,-87.28 -498.62,-38.37 -675.47,-124.22 330.27,35.41 665.34,26.48 992.24,89.01 51.21,-24.51 -21.03,-49.14 30.07,-73.43 44.68,18.09 91.76,15.58 141.55,-11.66 -15.58,-24.73 -23.32,-48.81 -12.97,-73 38.9,-25.61 69.42,20.49 110.71,-24.3 -11.99,-24.51 -26.05,-71.26 -56.23,-73.55 -34.76,99.59 -307.39,-32.37 -195.06,-85.55 -42.16,9.7 -41.4,-11.32 -58.84,-49.14 148.52,-71.69 287.23,-59.39 424.42,-35.3 -45.32,-32.59 36.07,-74.21 51.87,-72.79 -3.16,-51.44 -16.56,-102.65 -28.98,-122.27 36.07,-33.45 61.13,31.17 98.4,-11.77 16.34,-28.43 45.65,-56.66 42.28,-85.1 -152.44,-94.36 -257.49,-56.99 -411.24,-172.16 74.21,-21.79 140.24,28.43 215.43,0.65zm-8517.58 -201.37c-10.67,-29.53 18.52,-26.26 33.35,-40.64 1.63,-31.92 -9.58,-59.82 33.67,-64.72 0.54,35.52 -27.57,100.9 -67.02,105.37zm781.06 1516.79c-11.11,0 -22.77,0.65 -34.33,2.4 7.52,-21.91 26.69,-43.37 42.39,-27.36 -2.94,11.12 -5.57,18.64 -8.07,24.96zm434.12 -140.35c-9.82,3.71 -20.82,3.38 -24.74,-1.63 0.22,-1.41 1.1,-2.39 0.55,-3.92 -0.65,-0.98 -1.09,-1.19 -1.96,-1.74 0,-2.61 0.98,-5.23 3.05,-8.61 7.85,-1.41 15.48,-2.61 23.32,-4.03 -0.54,6.76 -0.65,13.62 -0.21,19.94zm723.85 -40.1c-35.19,-8.5 -71.81,-3.37 -104.93,-24.73 28.98,-10.25 75.63,2.84 28.43,-46.53 11.33,-1.31 22.24,-1.96 33.45,-2.84 1.42,3.16 0.77,7.19 -3.6,13.19 17.01,12.85 15.8,-2.84 21.58,-14.6 8.39,-0.65 16.89,-1.31 25.71,-1.96 2.39,25.6 -37.81,51.53 -0.65,77.47zm60.47 -56.66c-3.82,2.94 -7.84,6.09 -11.77,8.17 -1.2,-3.16 -1.42,-5.56 -1.63,-8.39 -13.62,-2.29 -11.88,-11.99 -2.84,-24.41 5.33,-0.22 10.68,-0.55 16.13,-1.1 -9.49,3.71 -15.8,11.33 -13.29,25.5 3.37,0.22 7.73,0.65 13.4,0.22 7.62,-6.22 15.8,-11.33 21.9,-3.6 -8.93,1.85 -16.01,3.05 -21.9,3.6zm1738.53 -120.19c1.31,-1.53 2.4,-2.94 2.73,-4.8 17.43,0 34.54,0.88 51.32,1.53 -17.77,2.61 -38.25,22.22 -54.05,3.27zm972.74 59.06c-68.33,-8.51 -137.3,-12.64 -206.93,-10.9 1.31,-6.97 3.82,-13.4 8.72,-20.26 42.82,-3.6 86.19,-6.87 128.25,-8.07 0,2.29 0.33,4.35 -0.11,7.52 1.41,-2.39 3.16,-5.45 4.8,-8.07 27.24,-0.55 54.37,-0.33 81.07,1.2 -2.39,11.99 -9.05,25.71 -15.79,38.58zm-540.58 27.68c-35.95,4.03 -156.04,-11.12 -101.12,36.17 -5.01,-7.95 -9.26,-15.91 2.84,-23.86 27.68,37.38 65.93,-14.93 92.62,36.72 -6.86,6.64 -6.33,23.53 9.37,12.3 -10.47,-20.81 4.35,-40.85 -3.71,-61.34zm-2424.36 175.32c-15.69,12.31 -44.45,5.45 -36.5,36.39 39.34,0.11 72.89,-61.78 75.73,-97.42 -43.36,0.12 -35.09,29.43 -39.23,61.02z"/>
    </g>
   </g>
   <path class="fil1" d="M-0 0l9958.54 0 0 2000.6 -9958.54 0 0 -2000.6zm0 0z"/>
   <g id="_2078369795408">
    <g>
     <g>
      <path class="fil2" d="M1296.25 1173.73l32.58 0 183.92 -513.55 196.9 513.55 32.59 0 220.87 -619.03c27.24,-75.08 65.27,-112.02 115.29,-112.02l0 -23.96 -257.81 0 0 23.96c55.46,0 100.14,32.59 100.14,79.34 0,32.68 -37.05,152.33 -111.04,357.95l-127.28 -380.73c-11.98,-34.87 -15.14,-56.55 46.86,-56.55l0 -23.96 -348.14 0 0 23.96c38.03,0 56.55,22.78 68.54,54.38l39.11 102.2c-18.51,68.54 -48.92,161.06 -91.42,281.78l-73.88 -216.51c-55.57,-165.3 -76.16,-221.86 -13.07,-221.86l0 -23.96 -345.97 0 0 23.96c43.48,0 62,28.22 89.25,97.86l242.55 633.19zm0 0z"/>
     </g>
    </g>
   </g>
   <g id="_2078369795168">
    <g>
     <g>
      <path class="fil2" d="M2396.08 1174.81c132.72,0 206.71,-91.42 244.84,-159.96l-18.52 -16.34c-45.65,31.6 -85.97,44.67 -138.17,43.58 -78.35,-2.18 -143.62,-71.81 -153.42,-193.63l291.59 -43.58c5.45,-64.19 -26.15,-206.71 -216.51,-206.71 -169.66,0 -289.41,128.36 -289.41,294.86 0,181.65 128.47,281.78 279.6,281.78zm-66.36 -354.68c-1.09,-102.32 13.07,-193.63 71.81,-193.63 50.12,0 67.44,77.26 55.47,172.93l-127.28 20.71zm0 0z"/>
     </g>
    </g>
   </g>
   <g id="_2078369792336">
    <g>
     <g>
      <path class="fil2" d="M2689.89 1158.47l312.18 0 0 -26.16c-40.2,-5.44 -51.1,-12.96 -51.1,-54.37l0 -715.79 -11.99 -6.54c-59.82,26.04 -178.38,38.03 -250.19,40.2l0 26.16c30.41,0 52.2,14.16 52.2,45.65l0 610.32c0,41.41 -10.89,48.93 -51.1,54.37l0 26.16zm0 0z"/>
     </g>
    </g>
   </g>
   <g id="_2078369791808">
    <g>
     <g>
      <path class="fil2" d="M3321.97 1174.81c143.62,0 206.71,-83.8 244.74,-159.96l-18.52 -16.34c-45.66,31.6 -85.86,44.67 -135.99,43.58 -95.67,-2.18 -142.52,-80.53 -145.79,-214.34 -3.16,-120.73 29.42,-201.26 77.26,-201.26 59.82,0 70.71,113.11 45.76,209.98 106.57,26.04 171.84,-25.06 171.84,-93.6 0,-89.24 -97.85,-144.7 -213.24,-144.7 -176.2,0 -283.97,130.54 -283.97,299.22 0,170.74 117.58,277.42 257.93,277.42zm0 0z"/>
     </g>
    </g>
   </g>
   <g id="_2078369794544">
    <g>
     <g>
      <path class="fil2" d="M3937.69 1174.81c182.73,0 304.56,-115.39 304.56,-287.23 0,-174.01 -121.82,-289.41 -304.56,-289.41 -182.74,0 -304.67,115.39 -304.67,289.41 0,171.84 121.93,287.23 304.67,287.23zm4.35 -28.33c-52.19,1.09 -85.97,-103.3 -89.24,-257.81 -3.28,-157.79 28.33,-261.09 80.52,-262.17 52.2,-1.09 84.89,102.21 88.16,259.99 2.17,154.51 -27.24,258.91 -79.44,259.99zm0 0z"/>
     </g>
    </g>
   </g>
   <g id="_2078369792864">
    <g>
     <g>
      <path class="fil2" d="M4303.26 1158.47l312.18 0 0 -26.16c-40.21,-5.44 -51.11,-12.96 -51.11,-54.37l0 -394.89c17.44,-13.07 39.13,-23.97 60.92,-23.97 42.38,0 67.44,30.51 67.44,99.05l0 332.89c0,30.51 -10.89,38.03 -42.38,43.48l0 23.97 303.47 0 0 -23.97c-40.21,-5.45 -51.11,-12.97 -51.11,-43.48l0 -311.09c0,-32.68 -4.35,-61.02 -14.16,-84.88 25.06,-22.88 48.92,-34.87 73.98,-34.87 42.39,0 66.37,29.42 66.37,97.96l0 332.89c0,30.51 -10.9,38.03 -42.39,43.48l0 23.97 303.47 0 0 -23.97c-40.21,-5.45 -51.1,-12.97 -51.1,-43.48l0 -311.09c0,-118.66 -63.09,-182.84 -173.04,-182.84 -59.82,0 -128.36,20.7 -190.35,70.71 -28.22,-46.75 -78.35,-70.71 -145.8,-70.71 -56.55,0 -119.64,18.52 -165.3,53.27l0 -51.1 -11.99 -6.54c-59.82,26.16 -178.36,38.13 -250.17,40.32l0 26.04c30.4,0 52.19,14.17 52.19,45.77l0 373.1c0,41.41 -10.89,48.93 -51.1,54.37l0 26.16zm0 0z"/>
     </g>
    </g>
   </g>
   <g id="_2078369792672">
    <g>
     <g>
      <path class="fil2" d="M5623.9 1174.81c132.72,0 206.71,-91.42 244.84,-159.96l-18.52 -16.34c-45.65,31.6 -85.97,44.67 -138.17,43.58 -78.35,-2.18 -143.62,-71.81 -153.42,-193.63l291.59 -43.58c5.45,-64.19 -26.15,-206.71 -216.51,-206.71 -169.66,0 -289.42,128.36 -289.42,294.86 0,181.65 128.48,281.78 279.61,281.78zm-66.37 -354.68c-1.09,-102.32 13.08,-193.63 71.81,-193.63 50.13,0 67.45,77.26 55.47,172.93l-127.28 20.71zm0 0z"/>
     </g>
    </g>
   </g>
   <g id="_2078369791904">
    <g>
     <g>
     </g>
    </g>
   </g>
   <g id="_2078369792000">
    <g>
     <g>
      <path class="fil2" d="M6209.24 1174.81c35.86,-8.72 77.26,-25.06 113.11,-47.94 37.05,30.51 90.33,47.94 153.43,47.94 180.55,0 299.21,-115.39 299.21,-307.93 0,-181.65 -102.32,-268.71 -212.16,-268.71 -84.88,0 -138.17,50.12 -154.51,73.99l0 -310.01 -11.99 -6.54c-59.82,26.04 -178.38,38.03 -250.19,40.2l0 26.16c30.41,0 52.2,14.16 52.2,45.65l0 701.73 10.89 5.45zm255.64 -28.33c-30.41,0 -57.64,-32.58 -57.64,-97.85l1.09 -341.61c13.07,-21.79 35.85,-41.41 64.19,-41.41 54.37,0 81.61,82.71 81.61,209.99 0,138.17 -32.69,270.88 -89.25,270.88zm0 0z"/>
     </g>
    </g>
   </g>
   <g id="_2078369788640">
    <g>
     <g>
      <path class="fil2" d="M6987.05 1174.81c81.61,0 133.8,-49.04 158.86,-78.35 14.17,54.37 52.2,76.17 110.93,76.17 66.36,0 125.19,-34.88 165.4,-82.71l-13.08 -19.61c-15.25,8.72 -24.94,14.16 -35.85,14.16 -15.25,0 -22.87,-9.81 -22.87,-26.15l0 -248c0,-139.26 -80.53,-212.16 -244.74,-212.16 -139.26,0 -233.95,57.64 -233.95,128.36 0,66.36 69.63,111.04 187.1,65.27 -36.94,-114.2 1.09,-166.39 33.77,-166.39 38.03,0 47.84,44.57 47.84,133.8l0 79.44c-153.42,34.76 -305.65,66.36 -305.65,196.9 0,79.43 56.55,139.25 152.23,139.25zm96.87 -76.16c-35.86,0 -62,-29.43 -62,-85.98 0,-66.36 28.33,-115.28 118.56,-150.15l0 204.54c-14.17,18.52 -32.59,31.6 -56.55,31.6zm0 0z"/>
     </g>
    </g>
   </g>
   <g id="_2078369789120">
    <g>
     <g>
      <path class="fil2" d="M7718.2 1174.81c143.62,0 206.71,-83.8 244.74,-159.96l-18.52 -16.34c-45.66,31.6 -85.86,44.67 -135.99,43.58 -95.67,-2.18 -142.52,-80.53 -145.79,-214.34 -3.16,-120.73 29.42,-201.26 77.26,-201.26 59.82,0 70.71,113.11 45.76,209.98 106.57,26.04 171.84,-25.06 171.84,-93.6 0,-89.24 -97.85,-144.7 -213.24,-144.7 -176.2,0 -283.97,130.54 -283.97,299.22 0,170.74 117.58,277.42 257.93,277.42zm0 0z"/>
     </g>
    </g>
   </g>
   <g id="_2078369789072">
    <g>
     <g>
      <path class="fil2" d="M8577.56 1174.81c37.05,0 93.6,-8.72 116.49,-22.88l0 -23.97c-27.24,-4.25 -62,-42.38 -167.59,-203.44l-96.76 -147.87 58.74 -56.66c63.09,-59.82 104.39,-70.72 168.57,-81.51l0 -23.97 -264.36 0 0 23.97c27.24,1.09 51.11,15.15 51.11,44.57 0,23.97 -20.6,55.47 -59.82,94.69l-107.67 105.48 0 -521.07 -11.99 -6.54c-59.82,26.04 -178.37,38.03 -250.18,40.2l0 26.16c30.4,0 52.19,14.16 52.19,45.65l0 610.32c0,41.41 -10.89,48.93 -51.1,54.37l0 26.16 312.19 0 0 -26.16c-40.21,-5.44 -51.11,-12.96 -51.11,-54.37l0 -154.51 15.26 -15.15 33.67 60.92c107.77,196.89 157.78,205.61 252.36,205.61zm0 0z"/>
     </g>
    </g>
   </g>
   <g id="_2078369791280">
    <g>
     <g>
      <path class="fil2" d="M8758.21 1341.2c106.57,-63.09 193.63,-168.56 193.63,-269.8 0,-64.18 -44.57,-113.11 -109.84,-113.11 -62,0 -112.13,48.93 -112.13,106.57 0,59.82 45.77,112.13 117.58,112.13 -10.9,34.76 -43.58,101.12 -104.5,145.8l15.26 18.41zm0 0z"/>
     </g>
    </g>
   </g>
   <g id="_2078369789456">
    <g>
     <g>
      <path class="fil2" d="M2536.37 2664.8l252.37 0 0 -23.97c-108.75,0 -125.09,-46.75 -67.45,-183.82l14.17 -32.59 223.05 0 33.67 88.04c33.78,87.06 38.13,128.36 -17.33,128.36l0 23.97 329.63 0 0 -23.97c-42.5,0 -56.55,-12.97 -70.72,-46.75l-279.6 -685.39 -47.84 0 -255.73 620.12c-31.49,76.17 -67.45,112.02 -114.2,112.02l0 23.97zm214.34 -277.43l101.12 -239.28 92.5 239.28 -193.62 0zm0 0z"/>
     </g>
    </g>
   </g>
   <g id="_2078369788832">
    <g>
     <g>
      <path class="fil2" d="M3339.29 2664.8l312.19 0 0 -26.16c-40.21,-5.44 -51.1,-12.96 -51.1,-54.37l0 -387.26c18.52,-16.35 43.47,-31.61 69.63,-31.61 42.38,0 67.44,30.51 67.44,99.05l0 332.89c0,30.51 -10.89,38.03 -42.49,43.48l0 23.97 303.58 0 0 -23.97c-40.21,-5.45 -51.11,-12.97 -51.11,-43.48l0 -311.09c0,-118.66 -63.09,-182.84 -173.03,-182.84 -59.82,0 -128.36,20.7 -174.01,60.91l0 -58.74 -11.99 -6.54c-59.82,26.16 -178.38,38.13 -250.19,40.32l0 26.04c30.4,0 52.19,14.17 52.19,45.77l0 373.1c0,41.41 -10.89,48.93 -51.1,54.37l0 26.16zm0 0z"/>
     </g>
    </g>
   </g>
   <g id="_2078369786960">
    <g>
     <g>
      <path class="fil2" d="M4188.87 2681.14c81.61,0 133.8,-49.04 158.86,-78.35 14.17,54.37 52.2,76.17 110.92,76.17 66.36,0 125.2,-34.88 165.41,-82.71l-13.08 -19.61c-15.26,8.72 -24.94,14.16 -35.85,14.16 -15.26,0 -22.88,-9.81 -22.88,-26.15l0 -248c0,-139.26 -80.53,-212.16 -244.73,-212.16 -139.26,0 -233.95,57.64 -233.95,128.36 0,66.36 69.63,111.04 187.09,65.27 -36.93,-114.2 1.1,-166.39 33.78,-166.39 38.03,0 47.84,44.57 47.84,133.8l0 79.44c-153.42,34.76 -305.65,66.36 -305.65,196.9 0,79.43 56.55,139.25 152.23,139.25zm96.87 -76.16c-35.86,0 -62,-29.43 -62,-85.98 0,-66.36 28.33,-115.28 118.56,-150.15l0 204.54c-14.17,18.52 -32.59,31.6 -56.55,31.6zm0 0z"/>
     </g>
    </g>
   </g>
   <g id="_2078369786336">
    <g>
     <g>
      <path class="fil2" d="M4877.52 2681.14c90.33,0 151.24,-33.78 196.9,-102.32l-19.5 -18.41c-30.51,38.03 -59.82,56.55 -87.06,56.55 -40.21,0 -59.82,-30.51 -59.82,-90.33l0 -362.31 145.8 0 0 -26.04 -145.8 0 0 -176.31 -28.33 -1.09c-28.22,106.67 -112.02,177.4 -237.11,177.4l0 26.04 55.47 0 0 321.01c0,130.53 59.82,195.81 179.46,195.81zm0 0z"/>
     </g>
    </g>
   </g>
   <g id="_2078369788208">
    <g>
     <g>
      <path class="fil2" d="M5411.71 2681.14c182.74,0 304.56,-115.39 304.56,-287.23 0,-174.01 -121.81,-289.41 -304.56,-289.41 -182.73,0 -304.66,115.39 -304.66,289.41 0,171.84 121.93,287.23 304.66,287.23zm4.36 -28.33c-52.2,1.09 -85.98,-103.3 -89.25,-257.81 -3.27,-157.79 28.33,-261.09 80.53,-262.17 52.2,-1.09 84.88,102.21 88.15,259.99 2.18,154.51 -27.24,258.91 -79.43,259.99zm0 0z"/>
     </g>
    </g>
   </g>
   <g id="_2078369788112">
    <g>
     <g>
      <path class="fil2" d="M5777.29 2664.8l312.18 0 0 -26.16c-40.21,-5.44 -51.1,-12.96 -51.1,-54.37l0 -715.79 -11.99 -6.54c-59.82,26.04 -178.38,38.03 -250.19,40.2l0 26.16c30.41,0 52.2,14.16 52.2,45.65l0 610.32c0,41.41 -10.9,48.93 -51.1,54.37l0 26.16zm0 0z"/>
     </g>
    </g>
   </g>
   <g id="_2078369787776">
    <g>
     <g>
      <path class="fil2" d="M6292.88 2055.57c64.19,0 104.5,-39.11 104.5,-101.22 0,-59.82 -40.32,-98.95 -104.5,-98.95 -63.09,0 -104.39,39.13 -104.39,98.95 0,62.11 41.3,101.22 104.39,101.22zm-155.49 609.23l312.18 0 0 -26.16c-40.2,-5.44 -51.1,-12.96 -51.1,-54.37l0 -478.69 -11.99 -6.54c-59.82,26.16 -178.38,38.13 -250.19,40.32l0 26.04c30.41,0 52.2,14.17 52.2,45.77l0 373.1c0,41.41 -10.9,48.93 -51.1,54.37l0 26.16zm0 0z"/>
     </g>
    </g>
   </g>
   <g id="_2078369786720">
    <g>
     <g>
      <path class="fil2" d="M6616.05 2942.23c118.55,0 165.29,-101.23 223.05,-258.91l170.74 -464.52c17.44,-47.95 41.41,-64.19 84.88,-71.81l0 -26.16 -209.98 0 0 26.16c93.6,2.17 77.26,94.58 -4.35,333.97l-117.46 -270.88c-17.44,-39.23 3.27,-60.92 42.38,-63.09l0 -26.16 -341.61 0 0 26.16c34.87,4.35 48.92,12.97 66.36,50.02l255.64 535.23c-70.72,84.89 -224.04,60.92 -273.08,-2.17 -65.26,143.62 20.71,212.16 103.42,212.16zm0 0z"/>
     </g>
    </g>
   </g>
   <g id="_2078369786768">
    <g>
     <g>
      <path class="fil2" d="M7257.94 2681.14c67.45,0 112.02,-41.4 112.02,-108.86 0,-65.27 -41.3,-108.74 -112.02,-108.74 -67.44,0 -112.13,41.3 -112.13,108.74 0,65.27 41.41,108.86 112.13,108.86zm0 0z"/>
     </g>
    </g>
   </g>
  </g>
 </g>
</svg>
