<?xml version="1.0" encoding="UTF-8"?><svg xmlns="http://www.w3.org/2000/svg" xmlns:xlink="http://www.w3.org/1999/xlink" width="375" zoomAndPan="magnify" viewBox="0 0 375 374.999991" height="374.999991" preserveAspectRatio="xMidYMid meet" version="1.0"><defs><clipPath id="clip-0"><path d="M 91 128 L 143 128 L 143 146 L 91 146 Z M 91 128 " clip-rule="nonzero"/></clipPath><clipPath id="clip-1"><path d="M 88.953125 136.429688 L 140.929688 124.855469 L 143.046875 134.371094 L 91.070312 145.945312 Z M 88.953125 136.429688 " clip-rule="nonzero"/></clipPath><clipPath id="clip-2"><path d="M 88.953125 136.429688 L 140.929688 124.855469 L 143.046875 134.371094 L 91.070312 145.945312 Z M 88.953125 136.429688 " clip-rule="nonzero"/></clipPath><clipPath id="clip-3"><path d="M 89.191406 136.375 L 140.703125 124.902344 L 142.832031 134.46875 L 91.320312 145.9375 Z M 89.191406 136.375 " clip-rule="nonzero"/></clipPath><clipPath id="clip-4"><path d="M 89.191406 136.375 L 140.691406 124.90625 L 142.8125 134.425781 L 91.3125 145.894531 Z M 89.191406 136.375 " clip-rule="nonzero"/></clipPath><clipPath id="clip-5"><path d="M 207 129 L 260 129 L 260 146 L 207 146 Z M 207 129 " clip-rule="nonzero"/></clipPath><clipPath id="clip-6"><path d="M 209.535156 125.875 L 261.734375 136.402344 L 259.808594 145.960938 L 207.609375 135.433594 Z M 209.535156 125.875 " clip-rule="nonzero"/></clipPath><clipPath id="clip-7"><path d="M 209.535156 125.875 L 261.734375 136.402344 L 259.808594 145.960938 L 207.609375 135.433594 Z M 209.535156 125.875 " clip-rule="nonzero"/></clipPath><clipPath id="clip-8"><path d="M 209.777344 125.925781 L 261.507812 136.355469 L 259.574219 145.960938 L 207.839844 135.527344 Z M 209.777344 125.925781 " clip-rule="nonzero"/></clipPath><clipPath id="clip-9"><path d="M 209.777344 125.925781 L 261.496094 136.355469 L 259.570312 145.914062 L 207.847656 135.484375 Z M 209.777344 125.925781 " clip-rule="nonzero"/></clipPath><clipPath id="clip-10"><path d="M 139.734375 219.488281 L 216.773438 219.488281 L 216.773438 246.988281 L 139.734375 246.988281 Z M 139.734375 219.488281 " clip-rule="nonzero"/></clipPath><clipPath id="clip-11"><path d="M 206.625 222.046875 C 208.261719 219.46875 211.65625 218.714844 214.214844 220.347656 C 216.792969 221.980469 217.546875 225.375 215.914062 227.933594 C 208.453125 239.640625 194.074219 246.988281 178.253906 246.988281 C 162.433594 246.988281 148.050781 239.640625 140.59375 227.933594 C 138.957031 225.375 139.710938 221.980469 142.289062 220.347656 C 144.847656 218.714844 148.246094 219.46875 149.878906 222.046875 C 155.253906 230.46875 166.085938 235.988281 178.253906 235.988281 C 190.417969 235.988281 201.253906 230.46875 206.625 222.046875 Z M 206.625 222.046875 " clip-rule="nonzero"/></clipPath><clipPath id="clip-12"><path d="M 106.714844 164.488281 L 139.734375 164.488281 L 139.734375 197.488281 L 106.714844 197.488281 Z M 106.714844 164.488281 " clip-rule="nonzero"/></clipPath><clipPath id="clip-13"><path d="M 123.222656 197.488281 C 132.339844 197.488281 139.734375 190.097656 139.734375 180.988281 C 139.734375 171.878906 132.339844 164.488281 123.222656 164.488281 C 114.109375 164.488281 106.714844 171.878906 106.714844 180.988281 C 106.714844 190.097656 114.109375 197.488281 123.222656 197.488281 Z M 123.222656 197.488281 " clip-rule="nonzero"/></clipPath><clipPath id="clip-14"><path d="M 216.773438 164.488281 L 249.789062 164.488281 L 249.789062 197.488281 L 216.773438 197.488281 Z M 216.773438 164.488281 " clip-rule="nonzero"/></clipPath><clipPath id="clip-15"><path d="M 233.28125 197.488281 C 242.394531 197.488281 249.789062 190.097656 249.789062 180.988281 C 249.789062 171.878906 242.394531 164.488281 233.28125 164.488281 C 224.167969 164.488281 216.773438 171.878906 216.773438 180.988281 C 216.773438 190.097656 224.167969 197.488281 233.28125 197.488281 Z M 233.28125 197.488281 " clip-rule="nonzero"/></clipPath></defs><path fill="rgb(85.099792%, 85.099792%, 85.099792%)" d="M 178.125 84.375 C 121.171875 84.375 75 130.546875 75 187.5 C 75 244.453125 121.171875 290.625 178.125 290.625 C 235.078125 290.625 281.25 244.453125 281.25 187.5 C 281.25 130.546875 235.078125 84.375 178.125 84.375 Z M 178.125 84.375 " fill-opacity="1" fill-rule="nonzero"/><g clip-path="url(#clip-0)"><g clip-path="url(#clip-1)"><g clip-path="url(#clip-2)"><g clip-path="url(#clip-3)"><g clip-path="url(#clip-4)"><path fill="rgb(65.098572%, 65.098572%, 65.098572%)" d="M 142.53125 133.714844 C 136.40625 126.527344 120.714844 129.355469 116.050781 130.394531 C 115.351562 130.550781 114.945312 130.65625 114.945312 130.65625 C 114.941406 130.65625 114.53125 130.730469 113.832031 130.886719 C 109.167969 131.925781 93.757812 136.023438 91.265625 145.128906 C 91.25 145.171875 91.144531 145.539062 91.320312 145.722656 C 91.546875 145.957031 92.074219 145.765625 92.921875 145.132812 C 93.269531 144.871094 93.570312 144.519531 93.953125 144.070312 C 95.746094 141.96875 99.082031 138.054688 115.765625 134.339844 C 132.445312 130.625 137.128906 132.753906 139.644531 133.898438 C 140.179688 134.140625 140.601562 134.332031 141.027344 134.417969 C 141.65625 134.546875 142.113281 134.582031 142.394531 134.519531 C 142.574219 134.476562 142.6875 134.394531 142.730469 134.277344 C 142.808594 134.035156 142.558594 133.746094 142.53125 133.714844 " fill-opacity="1" fill-rule="nonzero"/></g></g></g></g></g><g clip-path="url(#clip-5)"><g clip-path="url(#clip-6)"><g clip-path="url(#clip-7)"><g clip-path="url(#clip-8)"><g clip-path="url(#clip-9)"><path fill="rgb(65.098572%, 65.098572%, 65.098572%)" d="M 259.601562 145.152344 C 256.921875 136.09375 241.433594 132.308594 236.75 131.363281 C 236.046875 131.222656 235.632812 131.15625 235.636719 131.15625 C 235.632812 131.152344 235.226562 131.054688 234.519531 130.914062 C 229.839844 129.96875 214.09375 127.457031 208.117188 134.765625 C 208.085938 134.800781 207.839844 135.09375 207.925781 135.332031 C 208.039062 135.636719 208.597656 135.675781 209.628906 135.441406 C 210.054688 135.347656 210.472656 135.144531 211.003906 134.890625 C 213.496094 133.699219 218.132812 131.476562 234.886719 134.855469 C 251.640625 138.234375 255.054688 142.078125 256.890625 144.144531 C 257.28125 144.585938 257.589844 144.933594 257.941406 145.183594 C 258.464844 145.554688 258.871094 145.773438 259.148438 145.828125 C 259.332031 145.867188 259.46875 145.835938 259.554688 145.742188 C 259.726562 145.554688 259.613281 145.191406 259.601562 145.152344 " fill-opacity="1" fill-rule="nonzero"/></g></g></g></g></g><g clip-path="url(#clip-10)"><g clip-path="url(#clip-11)"><path fill="rgb(65.098572%, 65.098572%, 65.098572%)" d="M 112.21875 274.488281 L 244.285156 274.488281 L 244.285156 191.988281 L 112.21875 191.988281 Z M 112.21875 274.488281 " fill-opacity="1" fill-rule="nonzero"/></g></g><g clip-path="url(#clip-12)"><g clip-path="url(#clip-13)"><path fill="rgb(65.098572%, 65.098572%, 65.098572%)" d="M 79.199219 224.988281 L 167.246094 224.988281 L 167.246094 136.988281 L 79.199219 136.988281 Z M 79.199219 224.988281 " fill-opacity="1" fill-rule="nonzero"/></g></g><g clip-path="url(#clip-14)"><g clip-path="url(#clip-15)"><path fill="rgb(65.098572%, 65.098572%, 65.098572%)" d="M 189.257812 224.988281 L 277.304688 224.988281 L 277.304688 136.988281 L 189.257812 136.988281 Z M 189.257812 224.988281 " fill-opacity="1" fill-rule="nonzero"/></g></g></svg>