<?xml version="1.0" encoding="UTF-8"?><svg xmlns="http://www.w3.org/2000/svg" xmlns:xlink="http://www.w3.org/1999/xlink" width="375" zoomAndPan="magnify" viewBox="0 0 375 374.999991" height="374.999991" preserveAspectRatio="xMidYMid meet" version="1.0"><defs><clipPath id="clip-0"><path d="M 103.125 195.550781 L 253.125 195.550781 L 253.125 270.550781 L 103.125 270.550781 Z M 103.125 195.550781 " clip-rule="nonzero"/></clipPath><clipPath id="clip-1"><path d="M 104 146 L 163 146 L 163 170 L 104 170 Z M 104 146 " clip-rule="nonzero"/></clipPath><clipPath id="clip-2"><path d="M 121.070312 133.332031 L 165.25 163.054688 L 147.25 189.8125 L 103.066406 160.089844 Z M 121.070312 133.332031 " clip-rule="nonzero"/></clipPath><clipPath id="clip-3"><path d="M 121.070312 133.332031 L 165.25 163.054688 L 147.25 189.8125 L 103.066406 160.089844 Z M 121.070312 133.332031 " clip-rule="nonzero"/></clipPath><clipPath id="clip-4"><path d="M 188 146 L 247 146 L 247 171 L 188 171 Z M 188 146 " clip-rule="nonzero"/></clipPath><clipPath id="clip-5"><path d="M 196.613281 138.601562 L 247.726562 153.535156 L 238.679688 184.492188 L 187.566406 169.558594 Z M 196.613281 138.601562 " clip-rule="nonzero"/></clipPath><clipPath id="clip-6"><path d="M 196.613281 138.601562 L 247.726562 153.535156 L 238.679688 184.492188 L 187.566406 169.558594 Z M 196.613281 138.601562 " clip-rule="nonzero"/></clipPath><clipPath id="clip-7"><path d="M 101 114 L 149 114 L 149 141 L 101 141 Z M 101 114 " clip-rule="nonzero"/></clipPath><clipPath id="clip-8"><path d="M 97.070312 131.992188 L 144.964844 108.71875 L 149.226562 117.488281 L 101.332031 140.761719 Z M 97.070312 131.992188 " clip-rule="nonzero"/></clipPath><clipPath id="clip-9"><path d="M 97.070312 131.992188 L 144.964844 108.71875 L 149.226562 117.488281 L 101.332031 140.761719 Z M 97.070312 131.992188 " clip-rule="nonzero"/></clipPath><clipPath id="clip-10"><path d="M 97.289062 131.886719 L 144.757812 108.820312 L 149.039062 117.632812 L 101.570312 140.699219 Z M 97.289062 131.886719 " clip-rule="nonzero"/></clipPath><clipPath id="clip-11"><path d="M 97.289062 131.886719 L 144.746094 108.824219 L 149.007812 117.597656 L 101.550781 140.65625 Z M 97.289062 131.886719 " clip-rule="nonzero"/></clipPath><clipPath id="clip-12"><path d="M 201 114 L 249 114 L 249 142 L 201 142 Z M 201 114 " clip-rule="nonzero"/></clipPath><clipPath id="clip-13"><path d="M 205.828125 108.753906 L 253.183594 133.101562 L 248.726562 141.773438 L 201.371094 117.425781 Z M 205.828125 108.753906 " clip-rule="nonzero"/></clipPath><clipPath id="clip-14"><path d="M 205.828125 108.753906 L 253.183594 133.101562 L 248.726562 141.773438 L 201.371094 117.425781 Z M 205.828125 108.753906 " clip-rule="nonzero"/></clipPath><clipPath id="clip-15"><path d="M 206.042969 108.867188 L 252.980469 132.996094 L 248.5 141.707031 L 201.566406 117.578125 Z M 206.042969 108.867188 " clip-rule="nonzero"/></clipPath><clipPath id="clip-16"><path d="M 206.042969 108.867188 L 252.96875 132.988281 L 248.511719 141.664062 L 201.585938 117.539062 Z M 206.042969 108.867188 " clip-rule="nonzero"/></clipPath></defs><path fill="rgb(85.099792%, 85.099792%, 85.099792%)" d="M 178.125 84.375 C 121.171875 84.375 75 130.546875 75 187.5 C 75 244.453125 121.171875 290.625 178.125 290.625 C 235.078125 290.625 281.25 244.453125 281.25 187.5 C 281.25 130.546875 235.078125 84.375 178.125 84.375 Z M 178.125 84.375 " fill-opacity="1" fill-rule="nonzero"/><g clip-path="url(#clip-0)"><path fill="rgb(65.098572%, 65.098572%, 65.098572%)" d="M 103.125 195.550781 L 111.1875 195.550781 C 111.1875 232.460938 141.21875 262.488281 178.125 262.488281 C 215.035156 262.488281 245.0625 232.460938 245.0625 195.550781 L 253.125 195.550781 C 253.125 236.90625 219.480469 270.550781 178.125 270.550781 C 136.769531 270.550781 103.125 236.90625 103.125 195.550781 Z M 103.125 195.550781 " fill-opacity="1" fill-rule="nonzero"/></g><g clip-path="url(#clip-1)"><g clip-path="url(#clip-2)"><g clip-path="url(#clip-3)"><path fill="rgb(65.098572%, 65.098572%, 65.098572%)" d="M 119.542969 154.6875 C 119.90625 154.53125 120.324219 154.359375 120.6875 154.199219 C 121.144531 154.050781 121.632812 153.925781 122.089844 153.78125 L 122.183594 153.792969 C 122.730469 153.65625 123.300781 153.488281 123.96875 153.328125 C 124.515625 153.195312 125.179688 153.035156 125.800781 152.949219 C 126.382812 152.835938 126.976562 152.785156 127.515625 152.742188 L 128.167969 152.675781 C 128.4375 152.65625 128.765625 152.625 129.101562 152.648438 C 129.40625 152.652344 129.800781 152.667969 130.199219 152.683594 C 130.386719 152.707031 130.539062 152.707031 130.722656 152.734375 C 130.910156 152.757812 131.097656 152.78125 131.308594 152.773438 C 131.703125 152.789062 132.078125 152.835938 132.417969 152.863281 C 133.140625 152.996094 133.898438 153.15625 134.597656 153.324219 C 135.113281 153.464844 135.625 153.609375 136.082031 153.765625 C 136.40625 153.882812 136.699219 153.980469 137.050781 154.0625 C 137.210938 154.125 137.339844 154.160156 137.527344 154.183594 C 137.785156 154.257812 138.042969 154.328125 138.296875 154.398438 C 138.625 154.519531 138.953125 154.636719 139.242188 154.734375 L 139.5 154.804688 L 139.757812 154.878906 C 140.082031 154.996094 140.410156 155.113281 140.773438 155.257812 C 141.0625 155.351562 141.367188 155.507812 141.636719 155.636719 L 141.671875 155.660156 C 142.007812 155.835938 142.441406 156.027344 142.8125 156.226562 C 142.953125 156.320312 143.152344 156.40625 143.292969 156.5 C 143.46875 156.617188 143.699219 156.722656 143.875 156.839844 C 144.585938 157.21875 145.347656 157.679688 146.1875 158.246094 L 146.324219 158.339844 C 146.957031 158.761719 147.621094 159.210938 148.296875 159.714844 C 148.507812 159.855469 148.695312 160.03125 148.90625 160.175781 C 149.042969 160.269531 149.125 160.375 149.265625 160.46875 L 149.40625 160.5625 C 149.652344 160.726562 149.839844 160.902344 150.082031 161.066406 C 150.269531 161.242188 150.492188 161.445312 150.679688 161.621094 C 150.792969 161.75 150.96875 161.867188 151.085938 161.996094 C 151.238281 162.148438 151.414062 162.265625 151.53125 162.394531 C 151.714844 162.570312 151.925781 162.710938 152.113281 162.886719 C 152.40625 163.132812 152.671875 163.414062 152.941406 163.695312 L 153.175781 163.953125 L 153.328125 164.105469 C 153.628906 164.410156 153.96875 164.742188 154.285156 165.105469 C 154.585938 165.410156 154.867188 165.75 155.214844 166.136719 C 155.449219 166.390625 155.625 166.660156 155.824219 166.894531 C 155.90625 167 155.988281 167.105469 156.066406 167.210938 C 156.324219 167.585938 156.640625 167.949219 156.921875 168.289062 C 157.082031 168.5 157.304688 168.699219 157.46875 168.910156 L 157.585938 169.039062 C 157.632812 169.121094 157.703125 169.167969 157.773438 169.214844 C 158.15625 169.472656 158.726562 169.457031 159.101562 169.203125 C 159.21875 169.179688 159.359375 169.121094 159.464844 169.042969 C 159.835938 168.789062 160.234375 168.503906 160.65625 168.179688 C 160.839844 168.054688 161.027344 167.925781 161.15625 167.8125 L 161.320312 167.71875 C 161.484375 167.628906 161.613281 167.511719 161.738281 167.398438 C 161.867188 167.28125 162.03125 167.191406 162.21875 167.0625 C 162.570312 166.847656 162.71875 166.394531 162.628906 165.925781 L 162.617188 165.71875 C 162.605469 165.507812 162.511719 165.34375 162.382812 165.15625 L 162.324219 165.019531 C 162.195312 164.832031 162.089844 164.609375 161.960938 164.421875 C 161.832031 164.234375 161.671875 164.023438 161.578125 163.859375 C 161.460938 163.730469 161.332031 163.542969 161.238281 163.378906 L 161.074219 163.167969 C 160.949219 162.984375 160.796875 162.832031 160.679688 162.703125 C 160.632812 162.621094 160.5625 162.574219 160.515625 162.492188 C 160.316406 162.257812 160.117188 162.023438 159.921875 161.789062 C 159.675781 161.472656 159.394531 161.132812 159.128906 160.851562 C 158.894531 160.59375 158.660156 160.335938 158.425781 160.078125 C 158.125 159.773438 157.84375 159.433594 157.5625 159.09375 C 157.039062 158.4375 156.386719 157.898438 155.789062 157.34375 L 155.605469 157.167969 C 155.453125 157.015625 155.242188 156.875 155.089844 156.722656 C 154.683594 156.347656 154.238281 155.949219 153.773438 155.585938 L 153.667969 155.515625 C 153.128906 155.101562 152.582031 154.632812 152.023438 154.253906 C 151.847656 154.136719 151.636719 153.996094 151.460938 153.878906 C 151.113281 153.644531 150.726562 153.382812 150.398438 153.113281 L 150.191406 152.972656 C 149.980469 152.832031 149.792969 152.65625 149.582031 152.515625 C 149.546875 152.492188 149.546875 152.492188 149.511719 152.46875 C 149.234375 152.277344 148.917969 152.066406 148.542969 151.867188 C 147.925781 151.5 147.320312 151.191406 146.699219 150.828125 L 146.433594 150.699219 C 145.953125 150.425781 145.546875 150.203125 145.113281 150.011719 C 144.789062 149.894531 144.484375 149.738281 144.121094 149.597656 L 143.84375 149.558594 C 143.644531 149.476562 143.480469 149.417969 143.28125 149.335938 C 142.652344 149.0625 141.964844 148.800781 141.308594 148.5625 C 140.597656 148.335938 139.886719 148.109375 139.175781 147.882812 C 139.046875 147.84375 138.953125 147.832031 138.824219 147.796875 C 137.121094 147.304688 135.753906 146.992188 134.449219 146.820312 C 133.632812 146.671875 132.863281 146.609375 132.125 146.566406 C 131.941406 146.542969 131.730469 146.554688 131.542969 146.527344 C 131.355469 146.503906 131.203125 146.503906 131.015625 146.476562 C 130.621094 146.460938 130.257812 146.472656 129.921875 146.445312 L 129.769531 146.445312 L 129.921875 146.445312 C 129.371094 146.429688 128.835938 146.472656 128.320312 146.480469 C 128.054688 146.5 127.785156 146.519531 127.539062 146.507812 C 126.757812 146.535156 125.953125 146.597656 125.066406 146.707031 C 124.296875 146.796875 123.511719 146.976562 122.613281 147.175781 C 122.03125 147.289062 121.285156 147.492188 120.503906 147.671875 C 119.894531 147.816406 119.242188 148.035156 118.449219 148.304688 C 117.992188 148.453125 117.574219 148.625 117.152344 148.796875 L 116.722656 149.058594 L 116.582031 149.117188 C 116.324219 149.195312 116.078125 149.332031 115.824219 149.414062 C 115.542969 149.527344 115.273438 149.699219 114.992188 149.8125 L 114.890625 149.894531 L 114.667969 149.996094 C 114.363281 150.144531 114.035156 150.328125 113.710938 150.511719 C 113.652344 150.523438 113.628906 150.558594 113.546875 150.605469 C 113.382812 150.695312 113.242188 150.753906 113.113281 150.867188 L 113.089844 150.902344 C 112.90625 151.03125 112.683594 151.132812 112.460938 151.234375 C 111.996094 151.476562 111.585938 151.703125 111.128906 152.003906 C 110.839844 152.210938 110.582031 152.441406 110.3125 152.613281 C 110.082031 152.808594 109.871094 152.96875 109.601562 153.144531 C 109.226562 153.394531 108.902344 153.730469 108.5625 154.007812 L 108.433594 154.121094 C 108.28125 154.273438 108.121094 154.363281 107.96875 154.515625 C 107.652344 154.753906 107.347656 155.054688 107.046875 155.355469 C 106.976562 155.460938 106.894531 155.503906 106.824219 155.609375 C 106.777344 155.679688 106.695312 155.726562 106.648438 155.792969 L 106.566406 155.839844 C 106.460938 155.921875 106.390625 156.023438 106.308594 156.070312 C 105.902344 156.453125 105.503906 156.890625 105.109375 157.328125 C 104.933594 157.511719 104.792969 157.722656 104.652344 157.929688 C 104.605469 158 104.558594 158.070312 104.511719 158.136719 L 104.464844 158.207031 C 104.441406 158.242188 104.417969 158.277344 104.371094 158.347656 C 104.230469 158.554688 104.148438 158.75 104.082031 159.007812 C 104.046875 159.132812 104.046875 159.285156 104.105469 159.425781 C 104.113281 159.484375 104.09375 159.519531 104.125 159.542969 C 104.148438 159.660156 104.195312 159.742188 104.21875 159.855469 C 104.289062 160.054688 104.40625 160.183594 104.582031 160.300781 C 104.652344 160.347656 104.699219 160.429688 104.746094 160.511719 C 104.828125 160.617188 104.875 160.699219 104.976562 160.769531 C 105.164062 160.945312 105.328125 161.15625 105.515625 161.332031 L 105.632812 161.460938 C 105.714844 161.566406 105.832031 161.695312 105.933594 161.765625 C 106.003906 161.8125 106.015625 161.871094 106.085938 161.917969 L 106.15625 161.96875 L 106.296875 162.0625 C 106.332031 162.085938 106.378906 162.167969 106.414062 162.191406 C 106.566406 162.34375 106.660156 162.507812 106.832031 162.625 C 107.113281 162.8125 107.40625 162.90625 107.695312 162.851562 C 107.929688 162.808594 108.128906 162.738281 108.304688 162.554688 C 108.386719 162.507812 108.46875 162.460938 108.515625 162.394531 C 108.710938 162.171875 108.886719 161.988281 109.085938 161.769531 C 109.15625 161.664062 109.261719 161.585938 109.355469 161.445312 C 109.65625 161.144531 109.960938 160.847656 110.347656 160.5 C 110.683594 160.222656 111.011719 159.890625 111.503906 159.464844 C 111.886719 159.117188 112.308594 158.792969 112.703125 158.507812 C 112.808594 158.425781 112.890625 158.378906 112.996094 158.300781 L 113.453125 158 C 113.90625 157.703125 114.363281 157.402344 114.839844 157.070312 C 115.132812 156.863281 115.460938 156.679688 115.785156 156.496094 C 116.113281 156.3125 116.472656 156.152344 116.800781 155.96875 L 116.941406 155.914062 C 117.546875 155.617188 118.238281 155.273438 118.878906 155 C 119.019531 154.941406 119.265625 154.804688 119.542969 154.6875 Z M 119.542969 154.6875 " fill-opacity="1" fill-rule="nonzero"/></g></g></g><g clip-path="url(#clip-4)"><g clip-path="url(#clip-5)"><g clip-path="url(#clip-6)"><path fill="rgb(65.098572%, 65.098572%, 65.098572%)" d="M 201.632812 159.417969 C 201.929688 159.15625 202.277344 158.863281 202.574219 158.601562 C 202.960938 158.324219 203.390625 158.058594 203.78125 157.777344 L 203.875 157.761719 C 204.355469 157.46875 204.847656 157.132812 205.433594 156.78125 C 205.917969 156.484375 206.503906 156.132812 207.066406 155.863281 C 207.589844 155.578125 208.140625 155.347656 208.636719 155.144531 L 209.242188 154.886719 C 209.492188 154.785156 209.792969 154.65625 210.121094 154.578125 C 210.414062 154.488281 210.796875 154.382812 211.179688 154.277344 C 211.363281 154.242188 211.507812 154.199219 211.695312 154.164062 C 211.878906 154.132812 212.066406 154.097656 212.261719 154.027344 C 212.644531 153.917969 213.015625 153.855469 213.347656 153.777344 C 214.074219 153.683594 214.847656 153.605469 215.566406 153.554688 C 216.097656 153.535156 216.628906 153.515625 217.109375 153.523438 C 217.457031 153.539062 217.765625 153.542969 218.125 153.515625 C 218.296875 153.523438 218.429688 153.519531 218.617188 153.484375 C 218.882812 153.476562 219.148438 153.46875 219.417969 153.457031 C 219.765625 153.472656 220.109375 153.488281 220.417969 153.488281 L 220.683594 153.480469 L 220.949219 153.46875 C 221.296875 153.484375 221.644531 153.5 222.035156 153.527344 C 222.339844 153.527344 222.675781 153.582031 222.972656 153.625 L 223.011719 153.636719 C 223.386719 153.703125 223.855469 153.753906 224.273438 153.832031 C 224.4375 153.878906 224.648438 153.898438 224.8125 153.945312 C 225.015625 154.003906 225.269531 154.035156 225.472656 154.09375 C 226.265625 154.238281 227.125 154.445312 228.097656 154.730469 L 228.261719 154.777344 C 228.988281 154.992188 229.757812 155.214844 230.558594 155.492188 C 230.800781 155.5625 231.03125 155.675781 231.273438 155.746094 C 231.4375 155.792969 231.546875 155.871094 231.707031 155.917969 L 231.871094 155.964844 C 232.152344 156.046875 232.382812 156.15625 232.667969 156.242188 C 232.898438 156.351562 233.171875 156.476562 233.402344 156.585938 C 233.550781 156.671875 233.753906 156.734375 233.90625 156.820312 C 234.097656 156.917969 234.296875 156.980469 234.449219 157.066406 C 234.679688 157.175781 234.921875 157.25 235.152344 157.359375 C 235.507812 157.507812 235.847656 157.691406 236.1875 157.878906 L 236.488281 158.054688 L 236.679688 158.152344 C 237.0625 158.351562 237.484375 158.5625 237.894531 158.8125 C 238.273438 159.011719 238.644531 159.25 239.097656 159.511719 C 239.394531 159.6875 239.644531 159.890625 239.90625 160.054688 C 240.015625 160.128906 240.125 160.207031 240.234375 160.28125 C 240.59375 160.5625 241.003906 160.8125 241.371094 161.050781 C 241.589844 161.203125 241.863281 161.324219 242.082031 161.476562 L 242.234375 161.5625 C 242.300781 161.625 242.382812 161.652344 242.464844 161.675781 C 242.910156 161.804688 243.449219 161.613281 243.726562 161.257812 C 243.832031 161.203125 243.949219 161.105469 244.023438 160.996094 C 244.304688 160.644531 244.59375 160.25 244.898438 159.8125 C 245.039062 159.636719 245.175781 159.460938 245.265625 159.3125 L 245.390625 159.175781 C 245.519531 159.039062 245.609375 158.886719 245.695312 158.738281 C 245.78125 158.589844 245.910156 158.453125 246.050781 158.277344 C 246.316406 157.964844 246.324219 157.484375 246.09375 157.070312 L 246.019531 156.875 C 245.945312 156.679688 245.808594 156.550781 245.628906 156.410156 L 245.53125 156.292969 C 245.351562 156.15625 245.183594 155.976562 245.003906 155.835938 C 244.824219 155.695312 244.605469 155.546875 244.46875 155.417969 C 244.316406 155.332031 244.136719 155.191406 244 155.0625 L 243.78125 154.910156 C 243.601562 154.773438 243.410156 154.671875 243.261719 154.585938 C 243.191406 154.523438 243.109375 154.5 243.042969 154.433594 C 242.78125 154.269531 242.519531 154.109375 242.261719 153.945312 C 241.933594 153.71875 241.5625 153.480469 241.222656 153.292969 C 240.921875 153.117188 240.621094 152.941406 240.320312 152.769531 C 239.9375 152.570312 239.566406 152.332031 239.199219 152.089844 C 238.5 151.625 237.714844 151.308594 236.980469 150.964844 L 236.746094 150.851562 C 236.558594 150.753906 236.3125 150.683594 236.125 150.582031 C 235.621094 150.347656 235.078125 150.101562 234.523438 149.898438 L 234.398438 149.863281 C 233.765625 149.632812 233.097656 149.351562 232.449219 149.160156 C 232.25 149.101562 232.003906 149.03125 231.804688 148.972656 C 231.398438 148.855469 230.953125 148.722656 230.558594 148.566406 L 230.316406 148.492188 C 230.074219 148.421875 229.84375 148.3125 229.597656 148.242188 C 229.558594 148.230469 229.558594 148.230469 229.519531 148.21875 C 229.195312 148.121094 228.828125 148.015625 228.414062 147.9375 C 227.714844 147.777344 227.042969 147.667969 226.339844 147.507812 L 226.046875 147.464844 C 225.507812 147.351562 225.050781 147.261719 224.582031 147.210938 C 224.234375 147.195312 223.898438 147.140625 223.511719 147.117188 L 223.234375 147.164062 C 223.019531 147.144531 222.84375 147.140625 222.628906 147.121094 C 221.949219 147.050781 221.210938 147.011719 220.515625 146.980469 C 219.769531 146.980469 219.023438 146.980469 218.277344 146.980469 C 218.144531 146.984375 218.050781 147 217.917969 147.007812 C 216.144531 147.054688 214.75 147.167969 213.449219 147.402344 C 212.628906 147.507812 211.875 147.679688 211.160156 147.863281 C 210.976562 147.898438 210.777344 147.972656 210.59375 148.003906 C 210.40625 148.035156 210.261719 148.082031 210.078125 148.113281 C 209.695312 148.21875 209.351562 148.339844 209.023438 148.417969 L 208.878906 148.460938 L 209.023438 148.417969 C 208.496094 148.566406 207.996094 148.769531 207.507812 148.933594 C 207.257812 149.035156 207.011719 149.136719 206.773438 149.195312 C 206.035156 149.460938 205.289062 149.765625 204.476562 150.136719 C 203.769531 150.453125 203.078125 150.863281 202.28125 151.328125 C 201.757812 151.609375 201.109375 152.03125 200.417969 152.4375 C 199.886719 152.761719 199.328125 153.164062 198.652344 153.667969 C 198.265625 153.945312 197.917969 154.234375 197.566406 154.527344 L 197.234375 154.90625 L 197.121094 155.003906 C 196.898438 155.160156 196.707031 155.363281 196.488281 155.515625 C 196.253906 155.710938 196.050781 155.957031 195.816406 156.148438 L 195.742188 156.257812 L 195.5625 156.421875 C 195.316406 156.65625 195.0625 156.929688 194.808594 157.207031 C 194.753906 157.234375 194.742188 157.273438 194.679688 157.34375 C 194.550781 157.480469 194.433594 157.574219 194.347656 157.722656 L 194.335938 157.765625 C 194.195312 157.941406 194.015625 158.105469 193.835938 158.273438 C 193.464844 158.644531 193.144531 158.984375 192.800781 159.40625 C 192.585938 159.695312 192.410156 159.992188 192.207031 160.238281 C 192.042969 160.492188 191.890625 160.710938 191.6875 160.957031 C 191.410156 161.3125 191.199219 161.730469 190.960938 162.09375 L 190.871094 162.242188 C 190.773438 162.433594 190.644531 162.570312 190.546875 162.757812 C 190.320312 163.085938 190.121094 163.460938 189.921875 163.839844 C 189.886719 163.960938 189.824219 164.027344 189.789062 164.148438 C 189.765625 164.230469 189.703125 164.296875 189.679688 164.378906 L 189.613281 164.445312 C 189.539062 164.554688 189.503906 164.675781 189.4375 164.746094 C 189.164062 165.230469 188.917969 165.769531 188.675781 166.308594 C 188.5625 166.535156 188.492188 166.777344 188.421875 167.019531 C 188.398438 167.097656 188.375 167.179688 188.351562 167.257812 L 188.328125 167.339844 C 188.316406 167.378906 188.304688 167.421875 188.28125 167.5 C 188.210938 167.742188 188.195312 167.953125 188.203125 168.21875 C 188.210938 168.351562 188.253906 168.496094 188.351562 168.609375 C 188.382812 168.664062 188.371094 168.703125 188.410156 168.714844 C 188.46875 168.820312 188.539062 168.882812 188.59375 168.988281 C 188.722656 169.152344 188.871094 169.242188 189.074219 169.300781 C 189.15625 169.324219 189.226562 169.386719 189.292969 169.453125 C 189.402344 169.527344 189.472656 169.589844 189.59375 169.628906 C 189.824219 169.738281 190.046875 169.890625 190.277344 170 L 190.425781 170.089844 C 190.535156 170.164062 190.6875 170.25 190.808594 170.285156 C 190.890625 170.308594 190.917969 170.363281 191 170.386719 L 191.082031 170.410156 L 191.160156 170.433594 L 191.242188 170.457031 C 191.28125 170.46875 191.351562 170.53125 191.390625 170.542969 C 191.582031 170.644531 191.722656 170.773438 191.925781 170.832031 C 192.25 170.925781 192.554688 170.929688 192.816406 170.785156 C 193.023438 170.671875 193.195312 170.546875 193.304688 170.320312 C 193.367188 170.25 193.433594 170.183594 193.457031 170.101562 C 193.578125 169.832031 193.6875 169.601562 193.8125 169.335938 C 193.847656 169.214844 193.921875 169.105469 193.96875 168.945312 C 194.167969 168.566406 194.367188 168.1875 194.628906 167.742188 C 194.867188 167.375 195.078125 166.957031 195.414062 166.402344 C 195.675781 165.957031 195.980469 165.523438 196.269531 165.128906 C 196.347656 165.019531 196.410156 164.953125 196.488281 164.84375 L 196.828125 164.421875 C 197.171875 163.996094 197.515625 163.574219 197.871094 163.113281 C 198.085938 162.828125 198.34375 162.550781 198.597656 162.277344 C 198.855469 162.003906 199.152344 161.742188 199.40625 161.46875 L 199.523438 161.371094 C 200.011719 160.90625 200.5625 160.367188 201.089844 159.914062 C 201.207031 159.816406 201.398438 159.609375 201.632812 159.417969 Z M 201.632812 159.417969 " fill-opacity="1" fill-rule="nonzero"/></g></g></g><g clip-path="url(#clip-7)"><g clip-path="url(#clip-8)"><g clip-path="url(#clip-9)"><g clip-path="url(#clip-10)"><g clip-path="url(#clip-11)"><path fill="rgb(65.098572%, 65.098572%, 65.098572%)" d="M 148.570312 116.972656 C 140.949219 111.390625 126.335938 117.769531 122.039062 119.859375 C 121.394531 120.171875 121.023438 120.367188 121.027344 120.367188 C 121.023438 120.371094 120.640625 120.539062 119.992188 120.851562 C 115.695312 122.941406 101.652344 130.488281 101.332031 139.925781 C 101.328125 139.96875 101.308594 140.351562 101.523438 140.488281 C 101.792969 140.664062 102.265625 140.355469 102.941406 139.542969 C 103.222656 139.210938 103.433594 138.796875 103.703125 138.273438 C 104.960938 135.8125 107.300781 131.234375 122.671875 123.765625 C 138.042969 116.292969 143.09375 117.28125 145.804688 117.8125 C 146.378906 117.925781 146.835938 118.015625 147.269531 118 C 147.910156 117.980469 148.367188 117.90625 148.621094 117.78125 C 148.789062 117.703125 148.878906 117.597656 148.890625 117.46875 C 148.914062 117.214844 148.605469 116.992188 148.570312 116.972656 " fill-opacity="1" fill-rule="nonzero"/></g></g></g></g></g><g clip-path="url(#clip-12)"><g clip-path="url(#clip-13)"><g clip-path="url(#clip-14)"><g clip-path="url(#clip-15)"><g clip-path="url(#clip-16)"><path fill="rgb(65.098572%, 65.098572%, 65.098572%)" d="M 248.746094 140.9375 C 248.636719 131.492188 234.765625 123.632812 230.519531 121.449219 C 229.878906 121.121094 229.5 120.941406 229.503906 120.941406 C 229.5 120.941406 229.132812 120.734375 228.496094 120.40625 C 224.246094 118.222656 209.78125 111.515625 202.039062 116.921875 C 202.003906 116.945312 201.683594 117.160156 201.703125 117.414062 C 201.726562 117.738281 202.253906 117.925781 203.3125 117.984375 C 203.746094 118.007812 204.203125 117.929688 204.785156 117.828125 C 207.507812 117.359375 212.574219 116.484375 227.773438 124.296875 C 242.972656 132.113281 245.210938 136.742188 246.414062 139.230469 C 246.667969 139.761719 246.871094 140.179688 247.144531 140.515625 C 247.542969 141.015625 247.875 141.335938 248.128906 141.46875 C 248.292969 141.550781 248.433594 141.5625 248.542969 141.496094 C 248.761719 141.359375 248.75 140.980469 248.746094 140.9375 " fill-opacity="1" fill-rule="nonzero"/></g></g></g></g></g></svg>