<?xml version="1.0" encoding="UTF-8"?><svg xmlns="http://www.w3.org/2000/svg" xmlns:xlink="http://www.w3.org/1999/xlink" width="375" zoomAndPan="magnify" viewBox="0 0 375 374.999991" height="374.999991" preserveAspectRatio="xMidYMid meet" version="1.0"><defs><clipPath id="clip-0"><path d="M 84.375 84.375 L 290.625 84.375 L 290.625 290.625 L 84.375 290.625 Z M 84.375 84.375 " clip-rule="nonzero"/></clipPath></defs><path fill="rgb(100%, 100%, 100%)" d="M 187.5 84.375 C 130.382812 84.375 84.375 130.382812 84.375 187.5 C 84.375 244.617188 130.382812 290.625 187.5 290.625 C 244.085938 290.625 290.625 244.617188 290.625 187.5 C 290.625 130.382812 244.085938 84.375 187.5 84.375 Z M 187.5 274.757812 C 139.375 274.757812 100.242188 235.625 100.242188 187.5 C 100.242188 139.375 139.375 100.242188 187.5 100.242188 C 235.625 100.242188 274.757812 139.375 274.757812 187.5 C 274.757812 235.625 235.625 274.757812 187.5 274.757812 Z M 187.5 274.757812 " fill-opacity="1" fill-rule="nonzero"/><path fill="rgb(85.099792%, 85.099792%, 85.099792%)" d="M 187.5 100.242188 C 139.375 100.242188 100.242188 139.375 100.242188 187.5 C 100.242188 235.625 139.375 274.757812 187.5 274.757812 C 235.625 274.757812 274.757812 235.625 274.757812 187.5 C 274.757812 139.375 235.625 100.242188 187.5 100.242188 Z M 187.5 100.242188 " fill-opacity="1" fill-rule="nonzero"/><g clip-path="url(#clip-0)"><path fill="rgb(85.099792%, 85.099792%, 85.099792%)" d="M 187.464844 290.625 C 130.648438 290.625 84.375 244.347656 84.375 187.464844 C 84.375 130.582031 130.648438 84.375 187.464844 84.375 C 244.28125 84.375 290.554688 130.648438 290.554688 187.464844 C 290.625 244.347656 244.351562 290.625 187.464844 290.625 Z M 187.464844 86.121094 C 131.558594 86.121094 86.121094 131.558594 86.121094 187.464844 C 86.121094 243.371094 131.628906 288.878906 187.464844 288.878906 C 243.300781 288.878906 288.878906 243.371094 288.878906 187.464844 C 288.878906 131.558594 243.371094 86.121094 187.464844 86.121094 Z M 187.464844 86.121094 " fill-opacity="1" fill-rule="nonzero"/></g></svg>