<?xml version="1.0" encoding="UTF-8"?><svg xmlns="http://www.w3.org/2000/svg" xmlns:xlink="http://www.w3.org/1999/xlink" width="375" zoomAndPan="magnify" viewBox="0 0 375 374.999991" height="374.999991" preserveAspectRatio="xMidYMid meet" version="1.0"><path fill="rgb(100%, 56.858826%, 30.198669%)" d="M 178.125 84.375 C 121.171875 84.375 75 130.546875 75 187.5 C 75 244.453125 121.171875 290.625 178.125 290.625 C 235.078125 290.625 281.25 244.453125 281.25 187.5 C 281.25 130.546875 235.078125 84.375 178.125 84.375 Z M 178.125 84.375 " fill-opacity="1" fill-rule="nonzero"/><path fill="rgb(6.269836%, 5.879211%, 5.099487%)" d="M 144.066406 147.085938 C 134.125 147.085938 126.066406 155.144531 126.066406 165.085938 C 126.066406 175.027344 134.125 183.085938 144.066406 183.085938 C 154.007812 183.085938 162.066406 175.027344 162.066406 165.085938 C 162.066406 155.144531 154.007812 147.085938 144.066406 147.085938 Z M 144.066406 147.085938 " fill-opacity="1" fill-rule="nonzero"/><path fill="rgb(6.269836%, 5.879211%, 5.099487%)" d="M 210.535156 147.085938 C 200.59375 147.085938 192.535156 155.144531 192.535156 165.085938 C 192.535156 175.027344 200.59375 183.085938 210.535156 183.085938 C 220.476562 183.085938 228.535156 175.027344 228.535156 165.085938 C 228.535156 155.144531 220.476562 147.085938 210.535156 147.085938 Z M 210.535156 147.085938 " fill-opacity="1" fill-rule="nonzero"/><path fill="rgb(6.269836%, 5.879211%, 5.099487%)" d="M 218.640625 240.105469 L 150.402344 254.460938 C 148.78125 254.800781 147.183594 253.777344 146.847656 252.175781 L 144.828125 242.570312 C 144.488281 240.972656 145.539062 239.390625 147.160156 239.046875 L 215.398438 224.691406 C 217.019531 224.351562 218.617188 225.375 218.953125 226.976562 L 220.972656 236.582031 C 221.3125 238.179688 220.261719 239.761719 218.640625 240.105469 Z M 218.640625 240.105469 " fill-opacity="1" fill-rule="nonzero"/><path fill="rgb(6.269836%, 5.879211%, 5.099487%)" d="M 159.042969 132.519531 L 112.132812 158.957031 C 111.015625 159.585938 109.578125 159.160156 108.925781 158.003906 L 105.027344 151.085938 C 104.375 149.929688 104.757812 148.480469 105.871094 147.851562 L 152.78125 121.414062 C 153.898438 120.785156 155.335938 121.210938 155.988281 122.363281 L 159.886719 129.285156 C 160.539062 130.4375 160.160156 131.890625 159.042969 132.519531 Z M 159.042969 132.519531 " fill-opacity="1" fill-rule="nonzero"/><path fill="rgb(6.269836%, 5.879211%, 5.099487%)" d="M 246.855469 162.582031 L 203.023438 131.304688 C 201.980469 130.5625 201.757812 129.078125 202.527344 128 L 207.140625 121.53125 C 207.910156 120.453125 209.386719 120.183594 210.429688 120.925781 L 254.261719 152.207031 C 255.304688 152.949219 255.527344 154.433594 254.757812 155.511719 L 250.144531 161.976562 C 249.375 163.054688 247.898438 163.328125 246.855469 162.582031 Z M 246.855469 162.582031 " fill-opacity="1" fill-rule="nonzero"/></svg>