<?xml version="1.0" encoding="UTF-8"?><svg xmlns="http://www.w3.org/2000/svg" xmlns:xlink="http://www.w3.org/1999/xlink" width="375" zoomAndPan="magnify" viewBox="0 0 375 374.999991" height="374.999991" preserveAspectRatio="xMidYMid meet" version="1.0"><path fill="rgb(100%, 79.998779%, 30.198669%)" d="M 178.125 84.375 C 121.171875 84.375 75 130.546875 75 187.5 C 75 244.453125 121.171875 290.625 178.125 290.625 C 235.078125 290.625 281.25 244.453125 281.25 187.5 C 281.25 130.546875 235.078125 84.375 178.125 84.375 Z M 178.125 84.375 " fill-opacity="1" fill-rule="nonzero"/><path fill="rgb(0%, 0%, 0%)" d="M 144.066406 147.085938 C 134.125 147.085938 126.066406 155.144531 126.066406 165.085938 C 126.066406 175.027344 134.125 183.085938 144.066406 183.085938 C 154.007812 183.085938 162.066406 175.027344 162.066406 165.085938 C 162.066406 155.144531 154.007812 147.085938 144.066406 147.085938 Z M 144.066406 147.085938 " fill-opacity="1" fill-rule="nonzero"/><path fill="rgb(0%, 0%, 0%)" d="M 210.535156 147.085938 C 200.59375 147.085938 192.535156 155.144531 192.535156 165.085938 C 192.535156 175.027344 200.59375 183.085938 210.535156 183.085938 C 220.476562 183.085938 228.535156 175.027344 228.535156 165.085938 C 228.535156 155.144531 220.476562 147.085938 210.535156 147.085938 Z M 210.535156 147.085938 " fill-opacity="1" fill-rule="nonzero"/><path fill="rgb(0%, 0%, 0%)" d="M 217.925781 244.628906 L 138.5625 244.628906 C 136.671875 244.628906 135.136719 243.105469 135.136719 241.238281 L 135.136719 230.023438 C 135.136719 228.152344 136.671875 226.628906 138.5625 226.628906 L 217.925781 226.628906 C 219.8125 226.628906 221.351562 228.152344 221.351562 230.023438 L 221.351562 241.238281 C 221.351562 243.105469 219.8125 244.628906 217.925781 244.628906 Z M 217.925781 244.628906 " fill-opacity="1" fill-rule="nonzero"/><path fill="rgb(0%, 0%, 0%)" d="M 153.65625 128.433594 L 101.9375 143.429688 C 100.707031 143.789062 99.40625 143.042969 99.035156 141.769531 L 96.824219 134.140625 C 96.457031 132.867188 97.15625 131.542969 98.386719 131.183594 L 150.105469 116.1875 C 151.335938 115.832031 152.640625 116.578125 153.007812 117.847656 L 155.21875 125.480469 C 155.589844 126.75 154.886719 128.078125 153.65625 128.433594 Z M 153.65625 128.433594 " fill-opacity="1" fill-rule="nonzero"/><path fill="rgb(0%, 0%, 0%)" d="M 251.828125 146.578125 L 201.1875 128.269531 C 199.984375 127.835938 199.371094 126.464844 199.820312 125.21875 L 202.519531 117.75 C 202.96875 116.503906 204.320312 115.84375 205.523438 116.28125 L 256.164062 134.589844 C 257.367188 135.023438 257.984375 136.394531 257.53125 137.636719 L 254.832031 145.109375 C 254.382812 146.355469 253.035156 147.015625 251.828125 146.578125 Z M 251.828125 146.578125 " fill-opacity="1" fill-rule="nonzero"/></svg>