<?xml version="1.0" encoding="UTF-8"?><svg xmlns="http://www.w3.org/2000/svg" xmlns:xlink="http://www.w3.org/1999/xlink" width="375" zoomAndPan="magnify" viewBox="0 0 375 374.999991" height="374.999991" preserveAspectRatio="xMidYMid meet" version="1.0"><defs><clipPath id="clip-0"><path d="M 112 156 L 162 156 L 162 175 L 112 175 Z M 112 156 " clip-rule="nonzero"/></clipPath><clipPath id="clip-1"><path d="M 149.328125 184.296875 L 110.851562 162.441406 L 124.191406 138.964844 L 162.664062 160.820312 Z M 149.328125 184.296875 " clip-rule="nonzero"/></clipPath><clipPath id="clip-2"><path d="M 149.328125 184.296875 L 110.851562 162.441406 L 124.191406 138.964844 L 162.664062 160.820312 Z M 149.328125 184.296875 " clip-rule="nonzero"/></clipPath><clipPath id="clip-3"><path d="M 189 156 L 236 156 L 236 174 L 189 174 Z M 189 156 " clip-rule="nonzero"/></clipPath><clipPath id="clip-4"><path d="M 226.636719 181.375 L 187.597656 165.878906 L 197.007812 142.179688 L 236.042969 157.675781 Z M 226.636719 181.375 " clip-rule="nonzero"/></clipPath><clipPath id="clip-5"><path d="M 226.636719 181.375 L 187.597656 165.878906 L 197.007812 142.179688 L 236.042969 157.675781 Z M 226.636719 181.375 " clip-rule="nonzero"/></clipPath><clipPath id="clip-6"><path d="M 100 120 L 151 120 L 151 150 L 100 150 Z M 100 120 " clip-rule="nonzero"/></clipPath><clipPath id="clip-7"><path d="M 155.53125 130.046875 L 105.390625 155.535156 L 100.632812 146.175781 L 150.773438 120.6875 Z M 155.53125 130.046875 " clip-rule="nonzero"/></clipPath><clipPath id="clip-8"><path d="M 155.53125 130.046875 L 105.390625 155.535156 L 100.632812 146.175781 L 150.773438 120.6875 Z M 155.53125 130.046875 " clip-rule="nonzero"/></clipPath><clipPath id="clip-9"><path d="M 155.296875 130.164062 L 105.609375 155.421875 L 100.828125 146.015625 L 150.519531 120.761719 Z M 155.296875 130.164062 " clip-rule="nonzero"/></clipPath><clipPath id="clip-10"><path d="M 155.296875 130.164062 L 105.625 155.417969 L 100.863281 146.054688 L 150.539062 120.804688 Z M 155.296875 130.164062 " clip-rule="nonzero"/></clipPath><clipPath id="clip-11"><path d="M 205 121 L 251 121 L 251 152 L 205 152 Z M 205 121 " clip-rule="nonzero"/></clipPath><clipPath id="clip-12"><path d="M 245.359375 157.460938 L 200.367188 128.972656 L 205.582031 120.734375 L 250.574219 149.222656 Z M 245.359375 157.460938 " clip-rule="nonzero"/></clipPath><clipPath id="clip-13"><path d="M 245.359375 157.460938 L 200.367188 128.972656 L 205.582031 120.734375 L 250.574219 149.222656 Z M 245.359375 157.460938 " clip-rule="nonzero"/></clipPath><clipPath id="clip-14"><path d="M 245.152344 157.328125 L 200.5625 129.097656 L 205.804688 120.820312 L 250.394531 149.050781 Z M 245.152344 157.328125 " clip-rule="nonzero"/></clipPath><clipPath id="clip-15"><path d="M 245.152344 157.328125 L 200.574219 129.105469 L 205.789062 120.863281 L 250.367188 149.089844 Z M 245.152344 157.328125 " clip-rule="nonzero"/></clipPath><clipPath id="clip-16"><path d="M 111.5 218.785156 L 244.554688 218.785156 L 244.554688 244.285156 L 111.5 244.285156 Z M 111.5 218.785156 " clip-rule="nonzero"/></clipPath></defs><path fill="rgb(85.099792%, 85.099792%, 85.099792%)" d="M 178.125 84.375 C 121.171875 84.375 75 130.546875 75 187.5 C 75 244.453125 121.171875 290.625 178.125 290.625 C 235.078125 290.625 281.25 244.453125 281.25 187.5 C 281.25 130.546875 235.078125 84.375 178.125 84.375 Z M 178.125 84.375 " fill-opacity="1" fill-rule="nonzero"/><g clip-path="url(#clip-0)"><g clip-path="url(#clip-1)"><g clip-path="url(#clip-2)"><path fill="rgb(65.098572%, 65.098572%, 65.098572%)" d="M 149.304688 166.402344 C 149.015625 166.558594 148.675781 166.730469 148.386719 166.886719 C 148.015625 167.039062 147.617188 167.175781 147.25 167.328125 L 147.171875 167.324219 C 146.722656 167.472656 146.257812 167.652344 145.714844 167.828125 C 145.269531 167.976562 144.726562 168.152344 144.21875 168.265625 C 143.738281 168.394531 143.25 168.480469 142.804688 168.550781 L 142.265625 168.648438 C 142.046875 168.683594 141.777344 168.730469 141.492188 168.730469 C 141.242188 168.75 140.910156 168.761719 140.582031 168.777344 C 140.425781 168.769531 140.296875 168.777344 140.140625 168.769531 C 139.984375 168.761719 139.828125 168.753906 139.65625 168.773438 C 139.324219 168.789062 139.011719 168.769531 138.730469 168.773438 C 138.121094 168.707031 137.480469 168.625 136.890625 168.53125 C 136.457031 168.445312 136.019531 168.359375 135.632812 168.261719 C 135.355469 168.183594 135.105469 168.125 134.8125 168.078125 C 134.671875 168.039062 134.5625 168.015625 134.40625 168.007812 C 134.1875 167.964844 133.972656 167.921875 133.753906 167.878906 C 133.476562 167.800781 133.199219 167.722656 132.949219 167.664062 L 132.730469 167.621094 L 132.515625 167.578125 C 132.234375 167.5 131.957031 167.421875 131.648438 167.328125 C 131.402344 167.265625 131.140625 167.160156 130.910156 167.066406 L 130.878906 167.050781 C 130.585938 166.925781 130.21875 166.796875 129.894531 166.652344 C 129.773438 166.582031 129.605469 166.527344 129.480469 166.457031 C 129.328125 166.371094 129.128906 166.296875 128.976562 166.210938 C 128.363281 165.945312 127.707031 165.609375 126.972656 165.195312 L 126.851562 165.125 C 126.304688 164.8125 125.726562 164.484375 125.132812 164.109375 C 124.949219 164.003906 124.785156 163.871094 124.601562 163.765625 C 124.480469 163.699219 124.40625 163.613281 124.285156 163.546875 L 124.160156 163.476562 C 123.949219 163.355469 123.78125 163.222656 123.570312 163.101562 C 123.402344 162.964844 123.207031 162.8125 123.042969 162.679688 C 122.9375 162.578125 122.785156 162.492188 122.679688 162.394531 C 122.546875 162.277344 122.394531 162.191406 122.289062 162.089844 C 122.125 161.957031 121.941406 161.851562 121.773438 161.71875 C 121.519531 161.53125 121.277344 161.316406 121.039062 161.097656 L 120.828125 160.898438 L 120.695312 160.78125 C 120.425781 160.546875 120.125 160.296875 119.839844 160.015625 C 119.570312 159.78125 119.316406 159.515625 119.003906 159.214844 C 118.792969 159.015625 118.632812 158.804688 118.453125 158.621094 C 118.378906 158.539062 118.304688 158.457031 118.230469 158.375 C 117.996094 158.082031 117.710938 157.800781 117.460938 157.535156 C 117.3125 157.371094 117.113281 157.21875 116.96875 157.054688 L 116.863281 156.953125 C 116.820312 156.886719 116.757812 156.855469 116.695312 156.820312 C 116.363281 156.628906 115.886719 156.683594 115.59375 156.917969 C 115.496094 156.945312 115.382812 157 115.300781 157.074219 C 115.007812 157.308594 114.695312 157.574219 114.367188 157.871094 C 114.21875 157.988281 114.070312 158.105469 113.972656 158.210938 L 113.839844 158.296875 C 113.710938 158.386719 113.609375 158.488281 113.511719 158.59375 C 113.410156 158.699219 113.28125 158.785156 113.132812 158.902344 C 112.855469 159.109375 112.757812 159.496094 112.863281 159.878906 L 112.886719 160.050781 C 112.90625 160.226562 112.996094 160.355469 113.113281 160.503906 L 113.167969 160.613281 C 113.289062 160.761719 113.386719 160.941406 113.503906 161.089844 C 113.625 161.234375 113.773438 161.398438 113.859375 161.53125 C 113.964844 161.628906 114.082031 161.777344 114.167969 161.90625 L 114.316406 162.074219 C 114.433594 162.21875 114.570312 162.335938 114.675781 162.4375 C 114.71875 162.5 114.777344 162.535156 114.824219 162.601562 C 115 162.785156 115.179688 162.964844 115.359375 163.148438 C 115.582031 163.394531 115.835938 163.660156 116.074219 163.875 C 116.28125 164.074219 116.492188 164.273438 116.703125 164.472656 C 116.972656 164.707031 117.226562 164.972656 117.476562 165.238281 C 117.953125 165.75 118.527344 166.15625 119.054688 166.578125 L 119.21875 166.710938 C 119.355469 166.828125 119.539062 166.933594 119.671875 167.046875 C 120.035156 167.335938 120.425781 167.636719 120.835938 167.910156 L 120.929688 167.960938 C 121.398438 168.269531 121.882812 168.625 122.371094 168.902344 C 122.523438 168.988281 122.703125 169.09375 122.855469 169.179688 C 123.160156 169.351562 123.496094 169.542969 123.785156 169.746094 L 123.96875 169.851562 C 124.148438 169.953125 124.316406 170.089844 124.5 170.191406 C 124.527344 170.210938 124.527344 170.210938 124.558594 170.226562 C 124.804688 170.367188 125.078125 170.519531 125.398438 170.664062 C 125.933594 170.929688 126.457031 171.144531 126.992188 171.40625 L 127.222656 171.5 C 127.636719 171.691406 127.988281 171.851562 128.359375 171.984375 C 128.636719 172.058594 128.898438 172.167969 129.207031 172.261719 L 129.441406 172.277344 C 129.613281 172.332031 129.75 172.371094 129.921875 172.425781 C 130.460938 172.613281 131.046875 172.785156 131.605469 172.941406 C 132.210938 173.082031 132.8125 173.222656 133.417969 173.367188 C 133.527344 173.386719 133.605469 173.390625 133.714844 173.414062 C 135.15625 173.710938 136.308594 173.882812 137.40625 173.941406 C 138.09375 174.007812 138.734375 174.011719 139.347656 173.996094 C 139.503906 174.003906 139.679688 173.984375 139.835938 173.992188 C 139.992188 174 140.117188 173.992188 140.273438 174 C 140.605469 173.984375 140.90625 173.953125 141.1875 173.953125 L 141.3125 173.945312 L 141.1875 173.953125 C 141.644531 173.929688 142.085938 173.859375 142.511719 173.820312 C 142.734375 173.785156 142.957031 173.75 143.160156 173.746094 C 143.808594 173.671875 144.472656 173.566406 145.203125 173.414062 C 145.835938 173.292969 146.472656 173.089844 147.207031 172.863281 C 147.6875 172.730469 148.292969 172.511719 148.933594 172.3125 C 149.425781 172.152344 149.957031 171.929688 150.597656 171.648438 C 150.96875 171.496094 151.308594 171.324219 151.644531 171.15625 L 151.988281 170.90625 L 152.101562 170.851562 C 152.308594 170.765625 152.503906 170.636719 152.714844 170.554688 C 152.9375 170.441406 153.152344 170.277344 153.378906 170.164062 L 153.460938 170.089844 L 153.636719 169.992188 C 153.878906 169.847656 154.140625 169.671875 154.402344 169.5 C 154.449219 169.484375 154.464844 169.453125 154.53125 169.410156 C 154.660156 169.324219 154.773438 169.265625 154.875 169.164062 L 154.890625 169.132812 C 155.039062 169.015625 155.214844 168.914062 155.394531 168.8125 C 155.765625 168.582031 156.09375 168.367188 156.453125 168.085938 C 156.683594 167.894531 156.882812 167.6875 157.09375 167.523438 C 157.277344 167.347656 157.441406 167.199219 157.652344 167.035156 C 157.949219 166.800781 158.199219 166.5 158.464844 166.25 L 158.5625 166.144531 C 158.679688 166.007812 158.8125 165.921875 158.929688 165.789062 C 159.175781 165.566406 159.410156 165.296875 159.644531 165.023438 C 159.695312 164.933594 159.761719 164.890625 159.8125 164.800781 C 159.847656 164.738281 159.910156 164.695312 159.945312 164.632812 L 160.011719 164.589844 C 160.09375 164.515625 160.144531 164.425781 160.210938 164.382812 C 160.527344 164.039062 160.828125 163.644531 161.132812 163.253906 C 161.265625 163.089844 161.371094 162.90625 161.476562 162.722656 C 161.507812 162.664062 161.542969 162.601562 161.578125 162.539062 L 161.613281 162.480469 C 161.628906 162.449219 161.648438 162.417969 161.683594 162.359375 C 161.785156 162.175781 161.84375 162.003906 161.886719 161.789062 C 161.90625 161.679688 161.898438 161.554688 161.839844 161.441406 C 161.828125 161.394531 161.84375 161.363281 161.8125 161.34375 C 161.789062 161.25 161.746094 161.183594 161.71875 161.089844 C 161.648438 160.929688 161.542969 160.828125 161.390625 160.742188 C 161.328125 160.707031 161.285156 160.640625 161.242188 160.578125 C 161.167969 160.496094 161.125 160.429688 161.035156 160.378906 C 160.867188 160.242188 160.71875 160.078125 160.554688 159.945312 L 160.449219 159.84375 C 160.375 159.761719 160.269531 159.664062 160.179688 159.609375 C 160.117188 159.578125 160.105469 159.527344 160.042969 159.492188 L 159.984375 159.460938 L 159.859375 159.390625 C 159.832031 159.371094 159.785156 159.308594 159.757812 159.289062 C 159.621094 159.171875 159.535156 159.042969 159.382812 158.957031 C 159.136719 158.816406 158.890625 158.757812 158.652344 158.824219 C 158.460938 158.875 158.300781 158.945312 158.164062 159.109375 C 158.101562 159.15625 158.035156 159.199219 158 159.257812 C 157.847656 159.457031 157.714844 159.621094 157.5625 159.816406 C 157.511719 159.90625 157.429688 159.980469 157.359375 160.101562 C 157.125 160.375 156.890625 160.644531 156.59375 160.957031 C 156.328125 161.210938 156.078125 161.507812 155.695312 161.898438 C 155.398438 162.210938 155.066406 162.507812 154.753906 162.773438 C 154.671875 162.847656 154.609375 162.890625 154.523438 162.964844 L 154.164062 163.242188 C 153.804688 163.523438 153.445312 163.800781 153.066406 164.109375 C 152.839844 164.300781 152.578125 164.476562 152.316406 164.648438 C 152.058594 164.824219 151.765625 164.980469 151.507812 165.15625 L 151.394531 165.210938 C 150.90625 165.5 150.355469 165.832031 149.839844 166.101562 C 149.726562 166.160156 149.53125 166.289062 149.304688 166.402344 Z M 149.304688 166.402344 " fill-opacity="1" fill-rule="nonzero"/></g></g></g><g clip-path="url(#clip-3)"><g clip-path="url(#clip-4)"><g clip-path="url(#clip-5)"><path fill="rgb(65.098572%, 65.098572%, 65.098572%)" d="M 224.242188 164.625 C 223.988281 164.8125 223.695312 165.015625 223.441406 165.199219 C 223.117188 165.390625 222.757812 165.566406 222.433594 165.757812 L 222.359375 165.765625 C 221.957031 165.960938 221.546875 166.1875 221.058594 166.421875 C 220.65625 166.621094 220.171875 166.851562 219.710938 167.027344 C 219.277344 167.210938 218.828125 167.351562 218.421875 167.476562 L 217.925781 167.636719 C 217.722656 167.695312 217.476562 167.777344 217.210938 167.8125 C 216.976562 167.863281 216.667969 167.917969 216.359375 167.972656 C 216.210938 167.988281 216.09375 168.011719 215.949219 168.023438 C 215.800781 168.035156 215.652344 168.046875 215.492188 168.089844 C 215.183594 168.148438 214.886719 168.171875 214.621094 168.207031 C 214.039062 168.226562 213.429688 168.234375 212.859375 168.222656 C 212.441406 168.199219 212.019531 168.171875 211.644531 168.128906 C 211.371094 168.09375 211.132812 168.070312 210.847656 168.0625 C 210.710938 168.042969 210.605469 168.039062 210.457031 168.050781 C 210.25 168.039062 210.039062 168.027344 209.828125 168.015625 C 209.554688 167.976562 209.285156 167.941406 209.042969 167.917969 L 208.832031 167.902344 L 208.625 167.890625 C 208.351562 167.855469 208.078125 167.816406 207.777344 167.769531 C 207.535156 167.746094 207.277344 167.675781 207.046875 167.621094 L 207.015625 167.609375 C 206.726562 167.53125 206.363281 167.457031 206.039062 167.363281 C 205.917969 167.316406 205.75 167.285156 205.625 167.234375 C 205.472656 167.175781 205.273438 167.132812 205.117188 167.070312 C 204.507812 166.898438 203.84375 166.671875 203.101562 166.375 L 202.980469 166.328125 C 202.421875 166.105469 201.835938 165.871094 201.226562 165.597656 C 201.042969 165.523438 200.867188 165.417969 200.683594 165.34375 C 200.558594 165.296875 200.480469 165.226562 200.355469 165.179688 L 200.230469 165.128906 C 200.015625 165.042969 199.839844 164.9375 199.625 164.851562 C 199.453125 164.75 199.246094 164.632812 199.074219 164.527344 C 198.960938 164.449219 198.808594 164.386719 198.695312 164.308594 C 198.554688 164.214844 198.398438 164.152344 198.289062 164.074219 C 198.113281 163.96875 197.929688 163.894531 197.753906 163.789062 C 197.488281 163.648438 197.234375 163.476562 196.980469 163.304688 L 196.757812 163.144531 L 196.617188 163.054688 C 196.332031 162.871094 196.015625 162.671875 195.710938 162.445312 C 195.425781 162.261719 195.152344 162.046875 194.820312 161.808594 C 194.597656 161.648438 194.417969 161.46875 194.222656 161.320312 C 194.144531 161.253906 194.0625 161.1875 193.984375 161.117188 C 193.722656 160.875 193.417969 160.644531 193.144531 160.429688 C 192.984375 160.296875 192.78125 160.179688 192.617188 160.042969 L 192.507812 159.964844 C 192.457031 159.910156 192.394531 159.882812 192.335938 159.859375 C 191.992188 159.722656 191.554688 159.835938 191.308594 160.09375 C 191.222656 160.128906 191.125 160.199219 191.058594 160.277344 C 190.8125 160.535156 190.554688 160.824219 190.285156 161.144531 C 190.160156 161.273438 190.039062 161.402344 189.957031 161.515625 L 189.847656 161.613281 C 189.738281 161.710938 189.65625 161.820312 189.578125 161.933594 C 189.496094 162.042969 189.386719 162.140625 189.265625 162.269531 C 189.03125 162.5 188.988281 162.875 189.140625 163.21875 L 189.183594 163.378906 C 189.226562 163.535156 189.328125 163.648438 189.457031 163.769531 L 189.523438 163.867188 C 189.65625 163.992188 189.773438 164.144531 189.902344 164.269531 C 190.035156 164.390625 190.195312 164.527344 190.292969 164.636719 C 190.40625 164.714844 190.535156 164.839844 190.636719 164.949219 L 190.796875 165.085938 C 190.925781 165.207031 191.070312 165.300781 191.179688 165.378906 C 191.230469 165.433594 191.292969 165.460938 191.34375 165.515625 C 191.535156 165.664062 191.726562 165.808594 191.917969 165.957031 C 192.160156 166.160156 192.433594 166.375 192.6875 166.546875 C 192.910156 166.707031 193.132812 166.867188 193.355469 167.027344 C 193.640625 167.210938 193.914062 167.425781 194.1875 167.640625 C 194.699219 168.058594 195.296875 168.367188 195.847656 168.691406 L 196.019531 168.796875 C 196.160156 168.886719 196.347656 168.960938 196.488281 169.054688 C 196.867188 169.273438 197.277344 169.507812 197.695312 169.710938 L 197.789062 169.746094 C 198.273438 169.972656 198.773438 170.246094 199.269531 170.441406 C 199.421875 170.503906 199.609375 170.578125 199.765625 170.636719 C 200.074219 170.761719 200.414062 170.894531 200.710938 171.050781 L 200.894531 171.121094 C 201.082031 171.195312 201.253906 171.300781 201.441406 171.375 C 201.472656 171.386719 201.472656 171.386719 201.503906 171.398438 C 201.75 171.496094 202.027344 171.609375 202.351562 171.699219 C 202.886719 171.878906 203.40625 172.011719 203.945312 172.191406 L 204.175781 172.246094 C 204.589844 172.375 204.941406 172.480469 205.304688 172.554688 C 205.578125 172.589844 205.835938 172.65625 206.140625 172.707031 L 206.363281 172.6875 C 206.527344 172.71875 206.664062 172.738281 206.832031 172.765625 C 207.363281 172.871094 207.9375 172.957031 208.480469 173.03125 C 209.066406 173.085938 209.65625 173.140625 210.242188 173.195312 C 210.347656 173.203125 210.421875 173.195312 210.527344 173.203125 C 211.921875 173.292969 213.027344 173.304688 214.0625 173.21875 C 214.71875 173.195312 215.324219 173.113281 215.898438 173.019531 C 216.046875 173.007812 216.207031 172.964844 216.355469 172.953125 C 216.5 172.941406 216.617188 172.917969 216.765625 172.902344 C 217.074219 172.847656 217.351562 172.78125 217.617188 172.742188 L 217.734375 172.71875 L 217.617188 172.742188 C 218.042969 172.664062 218.449219 172.539062 218.847656 172.449219 C 219.050781 172.386719 219.253906 172.324219 219.445312 172.292969 C 220.042969 172.140625 220.652344 171.957031 221.316406 171.722656 C 221.898438 171.523438 222.46875 171.253906 223.128906 170.945312 C 223.5625 170.761719 224.101562 170.476562 224.675781 170.207031 C 225.121094 169.992188 225.585938 169.714844 226.152344 169.371094 C 226.480469 169.179688 226.777344 168.976562 227.070312 168.773438 L 227.359375 168.496094 L 227.457031 168.429688 C 227.644531 168.324219 227.808594 168.175781 227.992188 168.074219 C 228.191406 167.9375 228.371094 167.757812 228.566406 167.625 L 228.632812 167.542969 L 228.789062 167.425781 C 228.996094 167.261719 229.21875 167.0625 229.4375 166.867188 C 229.484375 166.847656 229.496094 166.816406 229.550781 166.769531 C 229.660156 166.671875 229.757812 166.601562 229.839844 166.492188 L 229.851562 166.460938 C 229.972656 166.332031 230.128906 166.214844 230.28125 166.097656 C 230.601562 165.835938 230.878906 165.589844 231.179688 165.28125 C 231.371094 165.070312 231.527344 164.851562 231.707031 164.671875 C 231.855469 164.480469 231.988281 164.320312 232.167969 164.144531 C 232.414062 163.882812 232.609375 163.570312 232.824219 163.300781 L 232.90625 163.191406 C 232.996094 163.046875 233.105469 162.949219 233.199219 162.808594 C 233.402344 162.570312 233.585938 162.285156 233.769531 162.003906 C 233.804688 161.910156 233.859375 161.863281 233.898438 161.769531 C 233.921875 161.707031 233.976562 161.660156 234.003906 161.597656 L 234.058594 161.546875 C 234.125 161.46875 234.160156 161.375 234.21875 161.328125 C 234.46875 160.964844 234.699219 160.558594 234.933594 160.152344 C 235.039062 159.980469 235.109375 159.796875 235.183594 159.609375 C 235.207031 159.550781 235.234375 159.488281 235.257812 159.425781 L 235.28125 159.367188 C 235.292969 159.335938 235.304688 159.304688 235.332031 159.242188 C 235.402344 159.058594 235.433594 158.890625 235.445312 158.683594 C 235.449219 158.578125 235.425781 158.460938 235.359375 158.363281 C 235.339844 158.320312 235.351562 158.289062 235.320312 158.277344 C 235.28125 158.191406 235.234375 158.136719 235.195312 158.050781 C 235.109375 157.910156 234.996094 157.828125 234.84375 157.765625 C 234.78125 157.742188 234.730469 157.6875 234.679688 157.632812 C 234.601562 157.566406 234.550781 157.507812 234.457031 157.472656 C 234.285156 157.367188 234.125 157.234375 233.949219 157.128906 L 233.839844 157.046875 C 233.757812 156.980469 233.644531 156.902344 233.554688 156.863281 C 233.492188 156.839844 233.472656 156.796875 233.410156 156.773438 L 233.347656 156.746094 L 233.289062 156.722656 L 233.226562 156.699219 C 233.195312 156.6875 233.144531 156.632812 233.113281 156.617188 C 232.972656 156.527344 232.871094 156.417969 232.71875 156.355469 C 232.46875 156.257812 232.230469 156.230469 232.011719 156.324219 C 231.839844 156.398438 231.699219 156.484375 231.59375 156.65625 C 231.539062 156.707031 231.484375 156.753906 231.460938 156.816406 C 231.34375 157.019531 231.238281 157.191406 231.125 157.394531 C 231.085938 157.488281 231.019531 157.566406 230.96875 157.6875 C 230.785156 157.972656 230.601562 158.253906 230.363281 158.585938 C 230.148438 158.859375 229.953125 159.171875 229.644531 159.582031 C 229.40625 159.914062 229.136719 160.234375 228.878906 160.523438 C 228.8125 160.605469 228.753906 160.652344 228.6875 160.734375 L 228.386719 161.039062 C 228.085938 161.347656 227.785156 161.65625 227.472656 161.992188 C 227.28125 162.203125 227.058594 162.398438 226.839844 162.597656 C 226.617188 162.792969 226.363281 162.976562 226.144531 163.175781 L 226.042969 163.242188 C 225.625 163.574219 225.152344 163.957031 224.703125 164.277344 C 224.605469 164.34375 224.4375 164.492188 224.242188 164.625 Z M 224.242188 164.625 " fill-opacity="1" fill-rule="nonzero"/></g></g></g><g clip-path="url(#clip-6)"><g clip-path="url(#clip-7)"><g clip-path="url(#clip-8)"><g clip-path="url(#clip-9)"><g clip-path="url(#clip-10)"><path fill="rgb(65.098572%, 65.098572%, 65.098572%)" d="M 101.34375 146.71875 C 109.578125 152.621094 124.890625 145.621094 129.390625 143.335938 C 130.066406 142.992188 130.453125 142.777344 130.449219 142.777344 C 130.453125 142.777344 130.855469 142.589844 131.53125 142.246094 C 136.03125 139.960938 150.710938 131.714844 150.792969 121.585938 C 150.796875 121.539062 150.804688 121.128906 150.574219 120.984375 C 150.28125 120.800781 149.792969 121.136719 149.09375 122.015625 C 148.808594 122.375 148.59375 122.820312 148.324219 123.382812 C 147.058594 126.035156 144.703125 130.972656 128.613281 139.152344 C 112.519531 147.332031 107.144531 146.328125 104.253906 145.785156 C 103.640625 145.671875 103.152344 145.582031 102.695312 145.601562 C 102.015625 145.628906 101.535156 145.714844 101.265625 145.851562 C 101.09375 145.9375 101 146.054688 100.988281 146.1875 C 100.972656 146.460938 101.308594 146.695312 101.34375 146.71875 " fill-opacity="1" fill-rule="nonzero"/></g></g></g></g></g><g clip-path="url(#clip-11)"><g clip-path="url(#clip-12)"><g clip-path="url(#clip-13)"><g clip-path="url(#clip-14)"><g clip-path="url(#clip-15)"><path fill="rgb(65.098572%, 65.098572%, 65.098572%)" d="M 205.488281 121.566406 C 204.753906 130.984375 217.867188 140.050781 221.902344 142.609375 C 222.507812 142.992188 222.871094 143.203125 222.867188 143.203125 C 222.871094 143.203125 223.21875 143.441406 223.824219 143.824219 C 227.859375 146.378906 241.667969 154.355469 249.863281 149.664062 C 249.902344 149.644531 250.234375 149.457031 250.242188 149.203125 C 250.246094 148.878906 249.734375 148.644531 248.6875 148.492188 C 248.257812 148.429688 247.796875 148.46875 247.210938 148.515625 C 244.457031 148.738281 239.332031 149.15625 224.890625 140.015625 C 210.449219 130.871094 208.636719 126.058594 207.660156 123.472656 C 207.453125 122.925781 207.289062 122.488281 207.050781 122.128906 C 206.695312 121.59375 206.394531 121.246094 206.152344 121.09375 C 205.996094 120.996094 205.859375 120.972656 205.742188 121.027344 C 205.515625 121.144531 205.492188 121.523438 205.488281 121.566406 " fill-opacity="1" fill-rule="nonzero"/></g></g></g></g></g><g clip-path="url(#clip-16)"><path fill="rgb(65.098572%, 65.098572%, 65.098572%)" d="M 244.253906 242.320312 C 233.117188 220.484375 192.941406 218.785156 180.894531 218.785156 C 179.085938 218.785156 178.03125 218.824219 178.035156 218.824219 C 178.023438 218.824219 176.96875 218.785156 175.160156 218.785156 C 163.113281 218.785156 122.941406 220.484375 111.804688 242.316406 C 111.75 242.414062 111.289062 243.289062 111.621094 243.863281 C 112.046875 244.585938 113.449219 244.390625 115.886719 243.261719 C 116.886719 242.796875 117.820312 242.066406 119.003906 241.140625 C 124.570312 236.792969 134.929688 228.695312 178.027344 228.695312 C 221.125 228.695312 231.484375 236.792969 237.050781 241.140625 C 238.234375 242.066406 239.167969 242.796875 240.167969 243.261719 C 241.644531 243.945312 242.757812 244.289062 243.476562 244.289062 C 243.945312 244.289062 244.265625 244.144531 244.433594 243.863281 C 244.769531 243.289062 244.304688 242.414062 244.253906 242.320312 " fill-opacity="1" fill-rule="nonzero"/></g></svg>