<svg xmlns="http://www.w3.org/2000/svg" viewBox="0 0 156.772 32">
  <defs>
    <style>.cls-1{fill:#fff;}.cls-2{fill:#fcd214;}</style>
  </defs>
  <title>Asset 6</title>
  <g id="Layer_2">
    <g id="EL_WRT_Logo_-_White">
      <path class="cls-1"
            d="M7.571,15H8.947l3.2,9.325,3.07-9.357h1.04l3.071,9.357L22.526,15h1.328l-4,11.276H18.783l-3.071-9.084-3.086,9.084H11.57Z"/>
      <path class="cls-1" d="M26.139,15h8.094v1.152H27.4v3.822h6.11v1.152H27.4v3.919h6.91V26.2H26.139Z"/>
      <path class="cls-1" d="M36.855,15h8.093v1.152H38.119v3.822h6.109v1.152H38.119v3.919h6.909V26.2H36.855Z"/>
      <path class="cls-1"
            d="M47.57,15h1.264v6.686L55.264,15H56.9L52.1,19.9,57.1,26.2H55.52l-4.3-5.422L48.834,23.19V26.2H47.57Z"/>
      <path class="cls-1" d="M59.069,15h1.264V25.03h6.3V26.2H59.069Z"/>
      <path class="cls-1" d="M70.393,21.767,65.739,15h1.535l3.775,5.6L74.855,15h1.472l-4.654,6.75V26.2h-1.28Z"/>
      <path class="cls-1"
            d="M83.139,15h4.814a4.411,4.411,0,0,1,3.183,1.12A3.091,3.091,0,0,1,92,18.328v.032a3.278,3.278,0,0,1-3.039,3.263L92.4,26.2H90.848L87.6,21.847H84.4V26.2H83.139Zm4.7,5.71c1.68,0,2.879-.864,2.879-2.3v-.032c0-1.375-1.055-2.207-2.863-2.207H84.4v4.542Z"/>
      <path class="cls-1" d="M94.7,15H102.8v1.152H95.966v3.822h6.109v1.152H95.966v3.919h6.909V26.2H94.7Z"/>
      <path class="cls-1"
            d="M105.417,15h4.191c2.527,0,4.19,1.344,4.19,3.551v.032c0,2.415-2.015,3.663-4.4,3.663h-2.719V26.2h-1.264Zm4.031,6.094c1.855,0,3.071-.991,3.071-2.463V18.6c0-1.6-1.2-2.431-3.007-2.431h-2.831V21.1Z"/>
      <path class="cls-1"
            d="M115.605,20.631V20.6a5.71,5.71,0,1,1,11.42-.032V20.6a5.71,5.71,0,1,1-11.42.032Zm10.109,0V20.6a4.452,4.452,0,0,0-4.415-4.622,4.4,4.4,0,0,0-4.382,4.59V20.6a4.452,4.452,0,0,0,4.414,4.623A4.4,4.4,0,0,0,125.714,20.631Z"/>
      <path class="cls-1"
            d="M129.7,15h4.814a4.411,4.411,0,0,1,3.183,1.12,3.091,3.091,0,0,1,.864,2.207v.032a3.278,3.278,0,0,1-3.039,3.263l3.439,4.574H137.4l-3.246-4.35h-3.2V26.2H129.7Zm4.7,5.71c1.68,0,2.879-.864,2.879-2.3v-.032c0-1.375-1.055-2.207-2.862-2.207h-3.455v4.542Z"/>
      <path class="cls-1" d="M144.1,16.169h-3.758V15h8.8v1.168h-3.759V26.2H144.1Z"/>
      <path class="cls-1"
            d="M32.354,8.187h.54a.464.464,0,0,0,.4-.411V1.285a.465.465,0,0,0-.4-.424h-.54V.013h6.953V2.4h-.938L38.215.925H34.757V3.972h1.761l.1-1.067h.9v3.02h-.9l-.1-1.067H34.757V8.11h3.574l.154-1.645h.963V9.01H32.354Z"/>
      <path class="cls-1"
            d="M40.171,8.187h.5a.384.384,0,0,0,.347-.347V3.509a.41.41,0,0,0-.347-.36H40.12V2.275h1.966c.193,0,.335.18.322.823v.179A3.955,3.955,0,0,1,45.056,2.2c.963,0,1.76.347,1.76,1.671V7.84a.372.372,0,0,0,.334.347h.425V9.01H44.5V8.187h.925V4.331c0-.835-.372-1.04-1.054-1.04a3.883,3.883,0,0,0-1.966.642V8.187h.938V9.01H40.171Z"/>
      <path class="cls-1"
            d="M48.33,7.416V3.149h-.861V2.275h.861V.463h1.388V2.275h1.53v.874h-1.53V7.262c0,.758.257.925.938.925h.5v.746a2.282,2.282,0,0,1-.934.167C49.024,9.1,48.33,8.676,48.33,7.416Z"/>
      <path class="cls-1"
            d="M51.978,8.187h.5a.384.384,0,0,0,.347-.347V3.509a.41.41,0,0,0-.347-.36h-.552V2.275h1.966c.193,0,.321.167.321.9v.219a2.519,2.519,0,0,1,2.005-1.169,1.247,1.247,0,0,1,.635.18,5.29,5.29,0,0,0-.582.987,2.557,2.557,0,0,0-2.058.709V8.187h1.067V9.01h-3.3Z"/>
      <path class="cls-2"
            d="M97.582,8.187h.5a.384.384,0,0,0,.347-.347V3.509a.41.41,0,0,0-.347-.36h-.552V2.275H99.5c.193,0,.321.167.321.9v.219a2.519,2.519,0,0,1,2-1.169,1.244,1.244,0,0,1,.635.18,5.345,5.345,0,0,0-.581.987,2.559,2.559,0,0,0-2.059.709V8.187h1.067V9.01h-3.3Z"/>
      <path class="cls-1"
            d="M56.321,5.668A3.17,3.17,0,0,1,59.6,2.2c1.889,0,2.982.99,2.982,3.239,0,.193-.013.373-.013.424H57.773c.051,1.568.733,2.339,2.069,2.339a1.975,1.975,0,0,0,1.735-.758h.8v.951a4.478,4.478,0,0,1-2.635.694A3.1,3.1,0,0,1,56.321,5.668Zm4.858-.642c-.051-1.427-.6-1.967-1.581-1.967-1.015,0-1.671.643-1.8,1.967Z"/>
      <path class="cls-2"
            d="M63.043,8.187h.54a.464.464,0,0,0,.4-.411V1.285a.465.465,0,0,0-.4-.424h-.54V.013H66.77V.861h-1.3V8.11h3.277l.142-1.889h1.015V9.01H63.043Z"/>
      <path class="cls-2"
            d="M70.459,5.668A3.171,3.171,0,0,1,73.736,2.2c1.89,0,2.982.99,2.982,3.239,0,.193-.013.373-.013.424H71.911c.052,1.568.733,2.339,2.069,2.339a1.973,1.973,0,0,0,1.735-.758h.8v.951a4.474,4.474,0,0,1-2.634.694A3.1,3.1,0,0,1,70.459,5.668Zm4.858-.642c-.051-1.427-.6-1.967-1.581-1.967-1.015,0-1.671.643-1.8,1.967Z"/>
      <path class="cls-2"
            d="M77.207,7.082c0-1.388,1.105-2.044,2.66-2.044a6.239,6.239,0,0,1,1.543.18V4.331c0-.861-.5-1.169-1.363-1.169a2.426,2.426,0,0,0-1.748.63h-.643V2.725A5.852,5.852,0,0,1,80.292,2.2c1.581,0,2.506.5,2.506,1.992V7.776a.384.384,0,0,0,.411.411h.348v.694a1.731,1.731,0,0,1-.888.206c-.732,0-1.118-.295-1.221-.912a2.456,2.456,0,0,1-2.056.912A1.929,1.929,0,0,1,77.207,7.082Zm4.2.373V5.99a6.44,6.44,0,0,0-1.259-.129c-.977,0-1.569.347-1.569,1.182S79.045,8.2,79.829,8.2A2.051,2.051,0,0,0,81.41,7.455Z"/>
      <path class="cls-2"
            d="M83.635,5.719c0-2.57,1.594-3.521,2.944-3.521a2.758,2.758,0,0,1,2.069.8V.861h-.977V.013h2.108c.18,0,.257.128.257.347V7.827a.4.4,0,0,0,.347.36h.5V9.01H88.944c-.155,0-.257-.193-.271-.925a2.861,2.861,0,0,1-2.236,1C85.075,9.087,83.635,8.3,83.635,5.719Zm5.013,1.607V3.74a2.491,2.491,0,0,0-1.619-.566c-.99,0-1.954.54-1.954,2.507,0,2.056.9,2.545,1.761,2.545A2.392,2.392,0,0,0,88.648,7.326Z"/>
      <path class="cls-2"
            d="M90.874,5.668A3.17,3.17,0,0,1,94.151,2.2c1.889,0,2.982.99,2.982,3.239,0,.193-.013.373-.013.424H92.326C92.377,7.429,93.058,8.2,94.4,8.2a1.976,1.976,0,0,0,1.736-.758h.8v.951a4.478,4.478,0,0,1-2.635.694A3.1,3.1,0,0,1,90.874,5.668Zm4.858-.642c-.052-1.427-.6-1.967-1.581-1.967-1.015,0-1.671.643-1.8,1.967Z"/>
      <path class="cls-2"
            d="M102.272,8.7V7.3h.835c.154.63.591.887,1.491.887.925,0,1.491-.334,1.491-1.028,0-.63-.463-.809-1.607-.989-1.388-.206-2.108-.644-2.108-1.98,0-1.26.964-1.992,2.571-1.992a6.148,6.148,0,0,1,2.211.334V3.869h-.81c-.142-.5-.514-.746-1.452-.746-.823,0-1.312.334-1.312.887,0,.591.36.8,1.53.977,1.542.231,2.262.643,2.262,1.979,0,1.286-.9,2.121-2.763,2.121A5.872,5.872,0,0,1,102.272,8.7Z"/>
      <path class="cls-2"
            d="M109.838,8.187h.939V9.01h-3.008V8.187h.335a.384.384,0,0,0,.347-.347V1.221a.41.41,0,0,0-.347-.36h-.54V.013h2.017c.168,0,.257.116.257.347V3.277A3.962,3.962,0,0,1,112.487,2.2c.964,0,1.761.347,1.761,1.671V7.84a.371.371,0,0,0,.333.347h.2V9.01h-2.85V8.187h.925V4.331c0-.835-.372-1.04-1.054-1.04a3.892,3.892,0,0,0-1.967.642Z"/>
      <path class="cls-2"
            d="M115.532,8.187h.28a.384.384,0,0,0,.347-.347V3.509a.4.4,0,0,0-.334-.36h-.566V2.275h2.03c.18,0,.258.155.258.591V7.84a.373.373,0,0,0,.347.347h.5V9.01h-2.863Zm.485-7.4a.782.782,0,0,1,.8-.784.79.79,0,0,1,.8.784.79.79,0,0,1-.8.784A.782.782,0,0,1,116.017.784Z"/>
      <path class="cls-2"
            d="M118.405,10.321h.5a.385.385,0,0,0,.347-.347V3.509a.41.41,0,0,0-.347-.36h-.553V2.275h1.967c.18,0,.309.128.309.784v.167A3.089,3.089,0,0,1,122.9,2.2c1.273,0,2.584.861,2.584,3.328,0,2.533-1.5,3.407-2.931,3.407a2.7,2.7,0,0,1-1.915-.617v2h1v.771h-3.239Zm5.642-4.678c0-1.954-.861-2.43-1.76-2.43a2.675,2.675,0,0,0-1.646.72V7.506a2.1,2.1,0,0,0,1.543.6C123.071,8.11,124.047,7.673,124.047,5.643Z"/>
      <polygon class="cls-1"
               points="156.772 32 0 32 0 8.048 27.779 8.048 27.779 8.811 0.763 8.811 0.763 31.237 156.009 31.237 156.009 8.811 130.018 8.811 130.018 8.048 156.772 8.048 156.772 32"/>
      <path class="cls-2"
            d="M125.6,2.689a.784.784,0,0,1,1.568,0,.784.784,0,0,1-1.568,0Zm1.417,0a.631.631,0,1,0-1.261,0,.631.631,0,1,0,1.261,0Zm-.984.256h.044a.043.043,0,0,0,.034-.035V2.447a.048.048,0,0,0-.034-.035h-.044V2.3h.373c.212,0,.312.074.312.217,0,.1-.053.147-.156.177v0c.078.013.108.048.138.156l.022.07a.041.041,0,0,0,.035.026h.03v.112h-.247l-.039-.208c-.013-.069-.039-.1-.109-.1h-.073v.195h.087v.112h-.373Zm.282-.308h.077c.087,0,.113-.039.113-.113s-.021-.1-.113-.1h-.077Z"/>
    </g>
  </g>
</svg>
